<?xml version="1.0" standalone="no"?>
<!DOCTYPE svg PUBLIC "-//W3C//DTD SVG 20010904//EN"
 "http://www.w3.org/TR/2001/REC-SVG-20010904/DTD/svg10.dtd">
<svg version="1.0" xmlns="http://www.w3.org/2000/svg"
 width="2375.000000pt" height="2375.000000pt" viewBox="0 0 2375.000000 2375.000000"
 preserveAspectRatio="xMidYMid meet">
<metadata>
Created by potrace 1.11, written by Peter Selinger 2001-2013
</metadata>
<g transform="translate(0.000000,2375.000000) scale(0.100000,-0.100000)"
fill="#000000" stroke="none">
<path d="M8855 23094 c-28 -16 -100 -75 -265 -219 -38 -33 -86 -82 -107 -109
-21 -27 -84 -97 -141 -155 -57 -58 -114 -117 -127 -131 -38 -40 -105 -129
-105 -138 0 -8 -19 -35 -53 -72 -14 -16 -84 -104 -102 -128 -5 -8 -31 -37 -56
-66 -109 -123 -209 -275 -209 -319 0 -13 7 -30 15 -37 9 -7 13 -20 10 -27 -3
-8 5 -23 18 -33 12 -11 43 -36 68 -57 257 -211 275 -226 423 -356 75 -65 138
-122 141 -128 4 -5 44 -41 90 -79 92 -76 158 -140 220 -210 64 -73 139 -163
160 -192 11 -14 60 -72 109 -127 49 -56 86 -104 84 -107 -6 -5 -110 56 -215
127 -154 104 -376 230 -613 349 -73 36 -147 70 -155 70 -3 0 -59 25 -124 55
-251 116 -501 190 -689 205 -70 5 -141 12 -158 16 -28 5 -34 1 -74 -53 -45
-59 -138 -167 -245 -283 -33 -36 -76 -86 -95 -110 -19 -25 -55 -65 -80 -91
-100 -101 -139 -147 -173 -200 -20 -31 -57 -84 -84 -117 -26 -33 -70 -93 -98
-131 -27 -39 -65 -89 -83 -110 -19 -22 -74 -99 -122 -173 -49 -73 -104 -151
-123 -173 -51 -59 -117 -156 -117 -172 0 -7 -4 -13 -9 -13 -8 0 -38 -45 -87
-131 -6 -10 -18 -27 -27 -37 -10 -10 -17 -23 -17 -28 0 -6 -18 -35 -40 -64
-22 -29 -40 -57 -40 -62 0 -5 -5 -14 -11 -21 -6 -7 -25 -38 -42 -69 -54 -95
-146 -248 -212 -348 -99 -152 -113 -177 -277 -492 -9 -18 -22 -39 -28 -45 -6
-7 -26 -45 -45 -83 -18 -39 -38 -76 -43 -83 -5 -7 -26 -50 -47 -97 -67 -152
-155 -334 -169 -350 -8 -8 -20 -33 -27 -55 -8 -22 -28 -63 -46 -92 -42 -66
-192 -368 -223 -448 -13 -33 -27 -62 -31 -65 -3 -3 -21 -35 -39 -72 -33 -71
-55 -189 -40 -218 23 -44 50 -55 135 -57 45 -1 172 -15 281 -32 109 -16 228
-34 264 -40 238 -36 518 -95 680 -145 112 -35 186 -56 235 -68 21 -5 44 -13
51 -18 6 -6 40 -19 75 -30 35 -11 91 -38 124 -59 100 -63 128 -80 174 -101 24
-11 70 -43 103 -70 32 -27 85 -63 118 -81 64 -34 92 -56 187 -151 61 -61 66
-77 22 -78 -13 0 -182 -47 -284 -78 -92 -28 -413 -167 -500 -216 -38 -21 -110
-60 -160 -85 -49 -26 -112 -60 -140 -75 -27 -16 -125 -71 -218 -123 -211 -118
-289 -165 -353 -214 -28 -21 -58 -39 -67 -39 -10 0 -17 -4 -17 -9 0 -9 -143
-111 -155 -111 -3 0 -24 -19 -48 -42 -23 -24 -73 -68 -111 -98 -38 -30 -95
-77 -126 -105 -32 -27 -106 -93 -166 -144 -141 -123 -324 -307 -498 -501 -77
-85 -156 -173 -176 -195 -20 -22 -80 -92 -133 -155 -54 -63 -114 -135 -135
-160 -76 -89 -282 -387 -282 -407 0 -7 -45 -85 -126 -218 -60 -99 -133 -254
-140 -297 -6 -32 -2 -41 33 -79 40 -44 258 -322 323 -412 19 -27 82 -103 140
-170 58 -67 117 -138 131 -157 15 -19 43 -53 63 -74 20 -22 36 -42 36 -45 0
-4 25 -33 55 -65 31 -32 69 -80 86 -105 17 -25 38 -50 45 -54 8 -4 14 -13 14
-20 0 -7 18 -32 40 -55 22 -24 40 -47 40 -51 0 -4 15 -23 33 -42 45 -50 77
-88 77 -94 0 -3 20 -31 45 -62 25 -32 62 -83 83 -113 29 -44 115 -156 164
-215 5 -5 36 -48 70 -95 33 -47 75 -101 93 -120 17 -19 38 -45 46 -56 8 -12
41 -53 74 -91 33 -38 67 -80 75 -94 8 -13 31 -39 49 -59 19 -19 57 -64 84
-100 27 -36 55 -69 61 -75 6 -5 29 -36 50 -68 22 -32 52 -72 68 -89 15 -17 28
-34 28 -38 0 -3 33 -40 73 -82 39 -42 91 -97 115 -122 23 -26 49 -46 57 -46 8
0 29 13 47 29 29 25 35 40 46 101 8 49 25 94 55 148 24 42 47 85 50 95 7 19
29 54 146 232 96 146 342 388 459 450 28 16 52 32 52 37 0 4 7 8 15 8 19 0 20
-46 1 -182 -39 -282 -41 -359 -17 -663 13 -160 16 -172 40 -184 10 -6 94 -12
187 -15 282 -9 650 -17 822 -17 l162 0 41 -61 c55 -80 152 -200 216 -266 29
-29 53 -57 55 -62 14 -37 336 -372 394 -411 14 -9 22 -19 17 -22 -5 -3 -119
-4 -253 -3 -228 3 -379 14 -705 51 -71 8 -204 17 -295 19 -91 3 -237 10 -325
15 -88 6 -268 11 -400 12 -132 1 -298 6 -370 11 l-130 10 -50 53 c-27 29 -74
79 -104 111 -57 63 -124 116 -236 190 -38 26 -94 65 -124 88 -90 69 -290 176
-329 176 -10 0 -32 5 -48 10 -16 6 -66 14 -112 18 -183 18 -344 -42 -473 -175
-171 -174 -221 -248 -261 -383 -8 -26 -19 -45 -27 -45 -22 0 -101 -153 -101
-195 0 -20 -13 -86 -29 -148 -16 -62 -25 -115 -20 -118 13 -8 0 -54 -27 -95
l-25 -36 11 -184 c12 -198 17 -228 57 -359 27 -88 50 -141 109 -250 34 -64 75
-162 96 -230 21 -71 87 -186 130 -226 49 -46 159 -129 200 -150 15 -8 70 -30
122 -48 88 -32 106 -35 223 -38 251 -5 454 48 632 166 53 34 109 74 126 87 44
37 188 182 206 209 l16 24 114 -46 c121 -49 461 -194 544 -233 81 -37 132 -60
270 -120 72 -32 155 -68 185 -82 30 -13 69 -30 85 -37 39 -16 193 -93 225
-111 14 -8 35 -15 48 -15 24 0 129 -49 197 -92 22 -13 69 -39 105 -57 73 -35
175 -118 204 -164 34 -57 24 -165 -25 -255 -31 -58 -36 -91 -17 -110 11 -11 3
-41 -32 -127 -4 -11 -37 -108 -73 -215 -36 -107 -72 -215 -81 -240 -33 -97
-108 -319 -131 -390 -13 -41 -38 -113 -56 -160 -17 -47 -37 -105 -44 -130 -8
-25 -31 -94 -53 -155 -21 -60 -60 -173 -86 -250 -26 -77 -53 -153 -61 -170 -7
-16 -23 -61 -35 -100 -20 -64 -48 -146 -145 -425 -19 -52 -52 -153 -75 -225
-23 -71 -53 -161 -67 -200 -13 -38 -38 -110 -54 -160 -16 -49 -33 -99 -38
-110 -23 -51 -61 -168 -61 -189 0 -13 7 -29 15 -36 8 -7 15 -23 15 -36 0 -26
41 -59 63 -51 18 7 884 -13 1202 -27 318 -14 335 -18 335 -69 0 -14 30 -53 78
-102 80 -83 194 -211 297 -334 68 -81 183 -199 338 -348 59 -57 107 -107 107
-113 0 -6 -12 -15 -27 -21 -93 -37 -124 -49 -178 -67 -33 -11 -96 -34 -140
-52 -44 -17 -105 -41 -135 -52 -30 -12 -66 -29 -80 -38 -14 -10 -36 -21 -50
-25 -28 -8 -169 -72 -245 -112 -130 -66 -226 -157 -248 -234 -27 -94 -41 -179
-30 -190 7 -7 785 -23 1008 -20 22 1 94 -4 160 -9 66 -5 167 -13 225 -16 58
-3 137 -8 175 -10 39 -3 113 -6 165 -9 144 -6 461 -25 495 -30 17 -3 84 -7
150 -10 66 -3 152 -10 190 -15 91 -12 335 -23 605 -26 445 -6 513 -10 547 -27
45 -24 78 -21 101 7 15 20 19 43 20 118 1 51 7 129 12 173 6 44 15 130 20 190
9 108 17 177 44 400 14 116 30 170 46 160 5 -3 35 -54 67 -112 110 -203 164
-293 260 -439 40 -62 73 -115 73 -119 0 -4 9 -20 20 -35 11 -16 46 -77 77
-137 87 -168 78 -159 180 -169 72 -6 197 -10 393 -12 121 -1 180 1 180 7 0 10
132 8 147 -2 7 -5 53 -5 101 -2 67 5 102 3 143 -9 43 -13 64 -14 112 -6 32 6
66 9 75 6 9 -3 179 -8 377 -11 198 -2 385 -7 415 -10 30 -2 154 -7 275 -9 121
-3 235 -9 252 -15 21 -6 35 -6 39 0 3 5 10 7 15 4 5 -4 106 -7 224 -7 118 -1
215 -5 215 -8 0 -3 44 -4 98 -2 53 2 147 -1 208 -6 62 -6 127 -7 145 -3 33 7
34 8 32 55 -1 43 -7 53 -70 124 -158 178 -241 237 -528 377 -106 52 -156 78
-161 86 -3 5 -14 9 -24 9 -10 0 -20 5 -22 10 -3 10 -175 76 -228 87 -14 3 -35
14 -47 25 l-21 20 36 52 c19 28 44 60 54 71 30 35 114 206 146 300 46 138 53
180 52 305 -1 63 -1 120 -1 126 1 11 133 10 150 -1 5 -2 100 -5 212 -6 112 -1
221 -6 242 -12 32 -9 41 -8 55 6 14 15 15 21 4 50 -36 88 -82 241 -96 317 -9
47 -21 108 -27 137 -11 54 -14 296 -4 313 3 5 20 7 38 5 17 -3 68 -9 112 -14
44 -6 136 -13 205 -17 68 -3 135 -10 147 -15 12 -4 97 -9 190 -10 128 -1 187
3 251 17 45 9 82 21 82 26 0 4 5 8 10 8 25 0 107 46 132 74 15 17 27 27 28 23
0 -12 50 49 50 62 0 5 16 23 35 38 19 15 35 36 35 46 0 9 5 17 10 17 6 0 10 5
10 11 0 7 10 22 23 34 12 12 40 48 62 80 22 32 54 74 70 95 46 56 148 290 162
370 2 14 8 41 13 60 5 19 11 100 14 180 l4 145 -44 50 c-24 28 -44 55 -44 62
0 17 -127 139 -185 178 -49 33 -167 85 -191 85 -7 0 -25 6 -41 14 -15 8 -77
29 -137 47 -90 28 -110 38 -119 59 -5 14 -15 39 -22 55 -7 17 -20 62 -29 100
-20 84 -52 192 -77 260 -11 28 -19 56 -19 63 0 7 -11 34 -24 60 -13 26 -26 61
-30 77 -4 17 -27 71 -51 120 -24 50 -55 119 -70 155 -15 36 -45 102 -66 147
-21 45 -39 85 -39 88 0 3 -11 30 -24 58 -13 29 -27 63 -31 77 -4 13 -23 54
-41 91 -19 37 -34 73 -34 81 0 16 -53 120 -151 298 -41 74 -81 151 -89 170 -7
19 -26 54 -42 77 -15 23 -28 44 -28 46 0 10 -87 145 -170 264 -47 67 -99 143
-116 168 -17 25 -49 64 -70 88 -22 23 -46 53 -55 67 -22 34 -319 332 -394 396
-33 28 -98 76 -145 106 -91 58 -119 84 -104 97 5 4 38 13 74 20 67 13 89 22
250 98 182 87 294 145 321 166 15 12 49 38 76 57 157 113 384 330 420 399 10
20 38 59 63 87 25 27 68 87 95 133 42 70 111 178 121 189 7 10 618 25 849 21
326 -5 694 -2 877 6 162 7 167 8 200 35 l33 28 -3 348 c-2 335 -10 492 -37
737 -3 26 -3 47 1 47 4 0 40 -19 82 -43 41 -23 104 -58 141 -79 45 -25 90 -63
143 -120 43 -45 78 -88 78 -95 0 -6 4 -13 9 -15 29 -10 135 -221 150 -299 9
-44 17 -59 37 -68 14 -6 29 -11 34 -11 17 0 103 71 175 144 119 120 346 337
536 511 36 33 101 89 144 125 44 36 95 83 115 104 44 50 74 79 139 136 63 55
85 76 234 226 65 66 134 133 153 149 20 17 41 37 47 45 7 8 77 80 157 160 199
201 320 328 354 375 16 22 45 55 63 73 18 18 33 36 33 40 0 12 107 122 119
122 6 0 11 6 11 13 0 7 13 26 29 43 15 16 31 38 35 49 3 11 24 30 46 43 32 18
40 28 40 52 0 16 4 31 9 34 24 15 -16 82 -111 183 -32 34 -58 65 -58 70 0 5
-18 29 -41 53 -23 25 -51 61 -64 80 -32 50 -188 224 -329 369 -174 178 -195
200 -256 270 -30 35 -68 75 -84 90 -57 50 -157 143 -209 192 -57 55 -386 279
-410 279 -18 0 -41 26 -30 33 5 3 134 5 287 6 235 0 282 3 302 16 26 17 30 48
14 105 -11 38 -16 571 -7 715 4 50 9 151 12 225 3 74 10 171 15 215 5 44 12
134 15 200 6 132 32 449 41 506 6 35 3 39 -38 66 -41 28 -51 30 -183 38 -225
13 -289 15 -700 21 -361 6 -484 3 -820 -22 l-80 -6 30 28 c32 31 84 72 144
115 112 79 141 99 147 99 4 0 34 17 68 38 62 39 86 49 258 102 197 60 246 67
603 80 295 10 309 13 299 69 -4 21 -20 48 -38 66 -32 31 -54 74 -77 155 -7 25
-16 49 -21 55 -4 5 -8 15 -8 23 0 20 -87 238 -121 304 -16 31 -30 73 -31 92
-1 20 -4 36 -7 36 -3 0 -12 15 -19 33 -7 17 -17 39 -21 47 -28 54 -82 150
-100 180 -12 19 -30 55 -42 80 -48 105 -145 289 -186 353 -15 23 -36 59 -48
80 -24 45 -132 203 -152 223 -8 8 -19 29 -24 48 -5 18 -20 45 -34 60 -14 15
-34 44 -45 64 -25 46 -36 63 -82 132 -21 31 -38 59 -38 63 0 5 -20 37 -45 74
-25 36 -45 71 -45 78 0 6 -13 30 -28 51 -16 21 -50 80 -77 129 -26 50 -56 99
-65 110 -10 11 -33 49 -51 85 -18 36 -43 79 -54 95 -12 17 -41 64 -64 105 -23
41 -55 95 -71 120 -42 65 -53 83 -76 126 -52 96 -90 165 -134 239 -26 44 -62
107 -80 140 -19 33 -36 62 -39 65 -11 10 -71 98 -71 105 0 6 -52 81 -117 170
-12 16 -39 55 -60 85 -21 30 -41 57 -44 60 -4 3 -17 25 -29 50 -13 25 -48 83
-80 130 -69 104 -95 145 -118 190 -9 19 -25 46 -33 60 -9 14 -38 66 -64 115
-52 100 -108 186 -131 206 -11 9 -23 9 -53 0 -21 -6 -54 -11 -72 -12 -19 0
-90 -20 -159 -43 -308 -106 -398 -139 -469 -173 -42 -19 -154 -71 -250 -114
-96 -43 -181 -85 -190 -93 -9 -8 -47 -27 -86 -42 -38 -15 -74 -31 -79 -35 -6
-5 -16 -9 -24 -9 -13 0 -133 -63 -217 -115 -22 -13 -56 -33 -76 -44 -19 -11
-69 -42 -110 -68 -94 -62 -230 -141 -316 -182 -23 -11 -66 -36 -95 -55 -29
-20 -56 -36 -60 -36 -4 0 -36 -17 -71 -39 -34 -21 -83 -47 -108 -58 -25 -11
-65 -34 -89 -52 -24 -17 -47 -31 -51 -31 -9 0 -110 -59 -119 -69 -3 -4 -27
-21 -55 -40 -27 -19 -71 -49 -97 -68 -43 -29 -68 -40 -68 -29 0 11 99 178 132
223 36 50 166 202 232 271 17 18 47 42 66 54 19 12 53 37 76 55 23 18 46 33
52 33 6 0 23 11 39 24 25 21 352 186 369 186 4 0 32 13 63 29 31 16 72 32 91
36 19 3 49 11 65 16 73 22 248 59 283 59 38 0 82 31 82 57 0 6 -17 32 -38 59
-21 27 -41 56 -44 64 -3 8 -39 65 -79 127 -41 62 -94 149 -119 193 -25 45 -64
110 -87 146 -24 35 -43 67 -43 70 0 14 -188 316 -261 419 -35 50 -139 222
-139 230 0 4 -19 31 -42 60 -47 59 -78 103 -105 150 -10 17 -64 76 -121 133
-103 103 -103 104 -142 97 -22 -4 -50 -14 -62 -24 -13 -9 -36 -23 -52 -31 -16
-8 -50 -33 -75 -55 -75 -66 -123 -101 -178 -129 -72 -36 -210 -154 -364 -311
-54 -55 -188 -190 -296 -300 -109 -111 -236 -243 -283 -294 -47 -51 -104 -113
-127 -137 -23 -24 -56 -64 -73 -88 -17 -25 -40 -50 -50 -56 -20 -11 -20 -7
-16 147 5 166 21 271 75 495 17 70 31 133 31 141 0 34 82 260 140 387 152 333
169 388 129 413 -12 7 -57 7 -145 -2 -71 -7 -275 -14 -454 -15 -520 -4 -935
-26 -1065 -56 -22 -5 -105 -14 -185 -20 -80 -5 -203 -15 -275 -21 -71 -7 -161
-13 -200 -15 -168 -9 -159 -7 -169 -36 -7 -19 -3 -47 16 -109 14 -46 29 -100
32 -120 3 -19 15 -53 26 -74 11 -22 20 -49 20 -61 0 -12 9 -41 20 -65 11 -24
20 -54 20 -66 0 -11 12 -54 26 -95 21 -61 60 -315 49 -326 -1 -1 -35 39 -75
90 -41 51 -96 118 -124 148 -28 30 -73 80 -100 110 -167 189 -434 434 -661
608 -107 81 -219 161 -255 181 -25 14 -59 35 -76 48 -16 12 -46 29 -65 38 -18
8 -63 34 -99 56 -36 23 -90 54 -120 69 -30 15 -127 63 -215 107 -201 102 -226
112 -289 118 -37 4 -59 1 -81 -11z m136 -90 c47 -14 182 -80 304 -149 22 -12
103 -55 179 -95 146 -76 255 -142 409 -250 83 -58 183 -135 197 -151 3 -3 12
-10 21 -15 23 -13 126 -103 234 -204 50 -47 111 -104 135 -126 25 -23 97 -97
160 -165 63 -68 124 -132 135 -144 12 -11 38 -45 58 -77 20 -31 40 -58 44 -60
16 -7 132 -168 159 -220 19 -37 57 -38 80 -3 14 21 16 41 10 111 -3 47 -10
104 -15 127 -5 23 -12 64 -15 90 -15 113 -64 304 -108 420 -11 29 -26 79 -33
112 -8 33 -21 85 -29 115 -8 30 -12 58 -8 62 8 7 250 32 467 48 83 6 200 17
260 25 61 8 146 17 190 19 44 3 106 10 137 15 57 10 295 7 306 -4 10 -9 42 -5
42 6 0 7 14 8 43 3 23 -4 59 -6 79 -5 21 1 47 -3 57 -9 13 -7 22 -7 26 0 3 5
15 10 26 10 10 0 19 3 19 8 0 4 69 7 152 7 169 0 418 11 466 21 43 9 42 -8 -7
-110 -97 -201 -215 -527 -236 -653 -4 -21 -17 -85 -30 -143 -52 -236 -58 -288
-60 -518 -3 -237 -3 -237 47 -263 22 -12 53 8 64 44 10 32 130 182 158 197 15
7 36 33 48 57 12 23 36 53 55 65 18 13 33 28 33 35 0 7 6 16 13 20 7 4 26 26
42 48 32 44 183 200 500 515 162 161 239 229 337 299 69 49 139 97 155 106 15
9 43 25 60 36 18 12 47 23 65 26 18 3 39 10 46 15 7 6 35 8 65 5 46 -4 56 -9
89 -48 68 -81 389 -559 510 -759 25 -41 73 -117 107 -167 33 -51 61 -96 61
-99 0 -4 23 -44 50 -90 28 -46 50 -87 50 -92 0 -5 9 -17 20 -27 11 -10 20 -22
20 -27 0 -4 14 -27 30 -50 17 -22 30 -44 30 -48 0 -9 63 -114 81 -136 16 -20
-2 -34 -46 -34 -16 0 -55 -7 -85 -16 -30 -9 -75 -19 -100 -24 -57 -11 -99 -25
-178 -61 -35 -16 -66 -29 -68 -29 -12 0 -353 -172 -390 -197 -198 -133 -369
-301 -491 -483 -86 -129 -113 -178 -143 -255 -13 -33 -27 -64 -32 -69 -12 -15
-10 -60 4 -74 17 -17 83 -15 98 2 11 15 299 212 365 251 18 11 77 46 131 79
104 63 204 119 314 176 37 20 74 41 81 47 24 19 181 103 193 103 7 0 23 11 36
25 13 14 27 25 32 25 8 0 100 56 150 91 29 20 225 121 304 156 98 43 160 74
229 110 39 21 91 46 115 57 82 34 225 99 245 112 11 7 76 31 143 53 68 22 129
44 135 49 7 5 35 16 62 25 28 8 88 29 135 46 47 17 100 31 118 31 18 0 44 7
58 16 23 16 26 15 44 -1 21 -19 92 -144 104 -181 9 -29 102 -195 166 -295 51
-80 70 -117 70 -134 0 -9 7 -18 15 -22 16 -5 51 -63 39 -63 -3 0 8 -18 25 -39
17 -21 31 -46 31 -55 0 -9 6 -19 14 -22 8 -3 19 -19 25 -35 5 -16 15 -29 20
-29 6 0 11 -7 11 -16 0 -19 36 -81 61 -106 10 -10 27 -18 37 -18 25 0 52 -48
33 -59 -17 -11 10 -65 50 -102 19 -16 29 -36 29 -53 0 -17 11 -37 29 -54 16
-15 31 -38 33 -52 2 -17 10 -26 26 -28 16 -3 22 -10 22 -29 0 -40 28 -89 72
-124 43 -36 93 -113 83 -129 -3 -5 0 -10 8 -10 7 0 19 -11 25 -25 6 -14 8 -25
4 -25 -16 0 -31 -41 -26 -69 6 -28 11 -31 54 -37 l48 -6 6 -47 c11 -91 19
-116 39 -139 16 -17 28 -21 49 -17 23 6 29 2 37 -17 5 -13 16 -30 25 -37 9 -7
16 -19 16 -25 0 -7 14 -34 32 -62 17 -27 45 -74 60 -104 49 -94 108 -194 128
-215 11 -12 20 -24 20 -28 0 -3 12 -23 26 -44 14 -21 40 -65 56 -98 17 -33 45
-75 63 -93 27 -28 32 -41 31 -77 -1 -23 4 -48 11 -54 10 -9 13 -8 13 4 0 23
18 18 26 -7 4 -13 20 -42 35 -65 16 -23 29 -51 29 -63 0 -12 4 -19 10 -15 5 3
30 -20 55 -52 41 -52 46 -62 42 -99 -3 -32 0 -46 14 -58 11 -9 19 -25 19 -36
0 -11 7 -20 15 -20 8 0 16 -8 16 -17 1 -17 2 -17 6 0 2 9 8 17 11 17 13 -1 73
-112 76 -142 2 -16 10 -36 18 -46 8 -9 35 -60 61 -113 26 -53 54 -102 63 -110
21 -17 89 -154 104 -209 7 -25 32 -87 56 -138 24 -51 44 -97 44 -102 0 -5 5
-21 11 -37 23 -54 60 -158 68 -188 4 -17 13 -40 19 -52 7 -12 12 -32 12 -45 0
-13 7 -33 15 -44 31 -41 23 -44 -142 -44 -228 -1 -475 -34 -593 -80 -30 -12
-71 -25 -90 -30 -101 -23 -215 -80 -356 -178 -178 -124 -336 -268 -348 -317
-11 -45 18 -69 74 -60 59 9 214 22 430 34 508 30 1324 2 1354 -48 5 -7 -18
-466 -29 -566 -3 -27 -7 -90 -10 -140 -3 -49 -10 -146 -15 -215 -6 -69 -10
-138 -11 -155 0 -16 -2 -199 -3 -405 l-3 -375 -34 -7 c-19 -5 -70 -6 -114 -3
-44 3 -182 2 -307 -2 l-228 -8 -27 -28 c-32 -31 -26 -50 23 -76 45 -24 137
-84 152 -98 7 -7 20 -13 28 -13 8 0 14 -7 14 -15 0 -8 9 -15 20 -15 21 0 24
-4 34 -52 5 -21 12 -28 30 -28 13 0 26 7 30 15 8 21 46 18 74 -4 26 -23 27
-28 6 -33 -13 -2 -10 -9 12 -31 74 -71 131 -118 152 -123 12 -3 22 -10 22 -15
0 -5 7 -9 15 -9 8 0 15 -9 15 -20 0 -14 7 -20 23 -20 20 0 87 -57 87 -74 0 -8
72 -76 81 -76 4 0 10 -14 14 -30 5 -24 11 -29 25 -25 27 9 200 -162 200 -198
0 -29 16 -37 22 -11 2 11 33 -16 98 -84 165 -173 235 -255 222 -260 -7 -2 -10
-8 -7 -12 3 -5 11 -7 18 -5 7 2 23 -11 37 -30 56 -76 117 -153 165 -210 72
-84 88 -110 80 -135 -3 -11 -10 -20 -14 -20 -5 0 -51 -50 -102 -111 -52 -61
-120 -141 -153 -177 -32 -37 -65 -77 -74 -89 -19 -31 -28 -29 -35 7 -7 33 -37
42 -37 11 0 -11 -4 -23 -10 -26 -18 -11 -11 -35 10 -35 32 0 24 -18 -42 -85
-35 -35 -83 -85 -108 -111 -32 -33 -46 -43 -48 -32 -4 19 -43 31 -56 18 -5 -5
-4 -21 4 -40 l13 -31 -96 -94 c-91 -91 -95 -93 -101 -69 -6 21 -10 23 -21 14
-8 -6 -11 -18 -8 -26 9 -24 -18 -66 -38 -61 -10 3 -20 -1 -23 -9 -3 -8 -12
-14 -20 -14 -9 0 -12 -7 -9 -18 3 -13 -6 -23 -34 -37 -34 -17 -35 -19 -15 -23
12 -2 22 -7 22 -12 0 -14 -63 -55 -80 -52 -11 2 -12 1 -2 -6 9 -6 0 -23 -35
-63 -52 -60 -143 -135 -143 -119 0 23 -22 8 -35 -24 -19 -44 -124 -150 -274
-276 -65 -54 -130 -113 -145 -130 -15 -18 -77 -78 -139 -134 -62 -56 -184
-172 -272 -259 -88 -86 -165 -157 -170 -157 -16 0 -35 22 -35 40 0 8 -13 34
-28 57 -36 56 -124 198 -138 224 -23 41 -161 176 -209 204 -28 16 -56 35 -63
42 -8 8 -28 20 -45 28 -18 8 -45 24 -62 34 -51 34 -239 121 -259 121 -9 0 4
-120 15 -142 10 -19 33 -180 47 -328 6 -58 11 -257 12 -442 1 -332 0 -337 -20
-348 -45 -24 -299 -29 -1040 -19 -69 1 -263 -2 -432 -6 -293 -8 -308 -7 -308
10 0 24 116 255 141 280 17 17 31 20 112 18 101 -2 590 -1 923 1 156 1 215 4
226 14 9 7 18 32 21 55 3 23 10 74 17 112 23 141 13 597 -14 619 -8 6 -17 25
-21 41 -13 58 -69 191 -103 245 -19 30 -56 81 -83 112 -27 31 -49 61 -49 67 0
6 29 48 65 93 36 46 76 96 89 113 l23 29 64 -18 c128 -35 366 -120 379 -135 3
-3 13 -7 22 -9 19 -3 217 -102 260 -130 96 -62 177 -129 178 -147 1 -11 4 -14
7 -7 9 22 62 -19 129 -103 36 -44 72 -89 81 -99 8 -11 26 -43 39 -72 26 -59
54 -83 89 -77 13 3 72 53 133 114 60 60 114 109 119 109 6 0 16 13 23 30 7 16
26 38 42 48 16 11 73 62 126 113 54 52 142 135 197 186 55 50 133 123 174 162
41 39 88 80 105 92 17 12 49 45 70 74 38 53 119 138 130 136 14 -2 35 12 30
20 -3 5 15 30 40 57 24 26 57 63 73 82 28 36 69 76 208 210 112 107 125 116
137 99 7 -10 8 -9 4 6 -4 15 6 32 35 62 33 35 44 41 59 33 27 -15 31 -13 24
14 -5 22 -2 25 30 31 35 7 47 20 25 27 -18 6 14 59 55 91 23 17 36 36 36 51 0
21 -46 82 -130 169 -40 43 -48 57 -30 57 6 0 10 11 10 25 0 14 -4 25 -10 25
-5 0 -10 -6 -10 -14 0 -37 -33 -18 -111 66 -46 50 -94 102 -106 115 -31 33
-46 62 -39 79 7 17 -10 19 -18 2 -3 -9 -9 -7 -17 6 -7 11 -22 28 -33 38 -12
10 -94 89 -183 176 -189 182 -202 194 -267 239 -27 19 -60 45 -72 58 -13 14
-26 25 -29 25 -6 0 -53 34 -160 117 -27 21 -68 49 -90 63 -22 13 -62 41 -90
61 -27 21 -70 48 -95 61 -25 13 -57 32 -71 41 -37 25 -239 114 -324 143 -38
14 -95 29 -125 34 -101 16 -124 25 -137 50 -17 34 -9 318 10 337 8 8 60 16
137 22 129 9 151 8 435 -4 468 -19 598 -13 631 34 13 17 18 326 16 926 l-1
289 -41 28 c-41 28 -42 28 -243 33 -111 3 -389 7 -617 10 -228 3 -451 9 -495
14 -44 5 -145 7 -225 5 -432 -10 -632 -13 -645 -8 -23 9 -18 23 21 68 19 22
39 46 43 51 23 27 250 238 278 258 18 12 72 56 120 97 48 42 117 97 153 122
36 26 87 67 114 91 27 25 80 64 118 88 38 24 96 62 129 84 34 22 66 43 72 47
7 3 44 24 82 46 124 71 168 94 220 114 27 11 86 37 130 57 44 21 121 50 170
65 50 15 120 35 156 46 36 11 74 29 83 39 17 18 16 22 -9 68 -15 26 -33 55
-40 63 -7 8 -25 39 -40 68 -16 30 -34 56 -41 59 -7 2 -15 15 -18 28 -4 14 -17
40 -30 59 -24 35 -25 83 -3 97 6 4 6 15 2 25 -8 18 -9 17 -12 -3 -6 -32 -33
-38 -52 -11 -24 35 -38 59 -60 104 -10 23 -40 75 -65 117 -25 42 -46 78 -46
81 0 6 -31 52 -71 106 -35 47 -81 139 -77 152 2 6 -9 25 -24 42 -15 17 -28 34
-28 39 0 5 -13 28 -30 52 -16 24 -30 47 -30 50 0 4 -20 37 -43 74 -24 37 -66
107 -92 156 -26 50 -58 104 -71 121 -13 17 -24 35 -24 40 0 5 -14 27 -30 48
-17 22 -30 44 -30 50 0 6 -16 34 -36 61 -20 28 -47 73 -60 100 -32 66 -59 113
-78 134 -9 10 -16 22 -16 27 0 5 -14 29 -31 54 -16 25 -34 55 -39 67 -5 13
-36 65 -68 115 -33 51 -76 127 -96 168 -32 65 -82 147 -183 301 -13 19 -23 40
-23 46 0 5 -16 30 -35 54 -19 24 -35 47 -35 51 0 4 -11 19 -25 34 -16 17 -23
34 -20 45 4 11 -1 22 -14 28 -11 6 -23 21 -26 33 -14 50 -37 90 -45 79 -9 -15
-40 30 -40 58 0 11 -3 21 -7 23 -12 5 -73 125 -73 142 0 9 -5 16 -11 16 -5 0
-17 17 -25 38 -23 56 -68 141 -105 200 -19 28 -47 73 -63 100 -71 116 -99 154
-120 162 -52 20 -304 -56 -526 -158 -41 -19 -104 -48 -140 -64 -119 -55 -144
-66 -206 -92 -34 -14 -65 -26 -68 -26 -4 0 -24 -11 -44 -25 -20 -14 -44 -25
-52 -25 -9 0 -47 -16 -86 -35 -38 -19 -72 -35 -76 -35 -4 0 -55 -22 -113 -50
-58 -28 -109 -50 -112 -50 -3 0 -20 -11 -37 -23 -17 -13 -76 -46 -131 -74
-148 -75 -296 -155 -330 -179 -16 -12 -57 -34 -90 -49 -33 -16 -93 -48 -133
-72 -41 -24 -75 -43 -77 -43 -2 0 -27 -16 -56 -35 -30 -19 -60 -35 -69 -35 -8
0 -26 -9 -40 -20 -14 -11 -56 -42 -95 -67 -86 -58 -167 -123 -221 -177 -22
-23 -71 -61 -108 -86 -38 -25 -98 -68 -134 -96 -78 -62 -221 -124 -285 -124
-53 0 -69 16 -86 87 -19 79 -2 183 59 358 15 44 35 105 44 135 74 243 223 479
445 701 135 136 356 339 368 339 5 0 24 15 43 33 57 52 168 122 265 167 148
69 196 94 211 111 22 25 9 79 -36 141 -20 29 -59 93 -85 143 -26 49 -56 102
-66 117 -10 14 -19 28 -19 31 0 3 -43 86 -96 184 -53 98 -113 210 -133 248
-89 170 -134 235 -163 235 -29 0 -89 -34 -144 -82 -27 -24 -73 -64 -103 -88
-30 -25 -75 -67 -100 -95 -25 -27 -62 -66 -81 -86 -19 -21 -62 -66 -95 -101
-34 -34 -79 -85 -100 -113 -22 -27 -72 -87 -112 -132 -39 -45 -80 -95 -90
-110 -9 -15 -38 -55 -62 -88 -25 -33 -61 -82 -80 -110 -19 -27 -37 -52 -41
-55 -4 -3 -31 -41 -60 -85 -30 -44 -66 -95 -81 -112 -29 -34 -99 -139 -99
-149 0 -10 -84 -107 -148 -170 -64 -63 -172 -135 -239 -158 -59 -20 -108 -2
-169 60 -44 45 -56 65 -77 136 -15 46 -31 109 -37 140 -15 75 -5 483 15 614
28 189 55 359 64 404 5 25 14 77 21 115 34 212 75 396 101 461 11 27 10 36 -4
58 -15 22 -25 26 -69 26 -100 0 -580 -53 -678 -75 -165 -37 -445 -64 -583 -57
-69 3 -117 -21 -137 -69 -12 -27 -9 -43 24 -147 21 -64 49 -148 63 -186 28
-75 71 -213 108 -346 13 -47 35 -117 50 -157 24 -68 47 -150 99 -348 48 -182
67 -251 80 -290 19 -55 37 -160 38 -220 1 -54 -29 -163 -66 -235 -41 -80 -132
-107 -195 -58 -13 10 -28 18 -33 18 -25 0 -138 104 -138 126 0 6 -9 19 -20 29
-11 10 -20 28 -20 41 0 13 -4 26 -10 29 -5 3 -10 17 -10 30 0 13 -6 36 -14 52
-8 15 -26 62 -41 103 -33 96 -114 266 -141 299 -12 14 -38 58 -59 96 -88 164
-109 202 -136 242 -15 22 -30 50 -34 61 -3 12 -21 34 -38 49 -18 16 -42 44
-54 63 -12 19 -32 46 -45 60 -41 44 -98 117 -98 125 0 18 -208 240 -297 316
-54 46 -100 86 -103 89 -26 26 -171 148 -234 195 -441 334 -750 527 -915 572
-101 28 -95 29 -149 -24 -28 -26 -83 -77 -122 -113 -39 -36 -84 -81 -99 -102
-15 -20 -98 -115 -186 -212 -93 -103 -185 -217 -221 -274 -34 -53 -76 -114
-93 -136 -17 -21 -31 -46 -31 -55 0 -18 70 -81 89 -81 22 0 184 -81 253 -126
40 -26 102 -78 138 -115 36 -36 97 -90 135 -118 39 -29 88 -71 110 -94 22 -23
56 -56 75 -72 19 -17 62 -62 95 -100 33 -39 121 -135 197 -215 75 -80 158
-172 183 -204 25 -33 56 -70 68 -82 23 -24 83 -107 172 -239 30 -44 75 -111
101 -150 26 -38 63 -108 81 -155 19 -47 45 -110 58 -140 12 -30 26 -85 29
-121 5 -58 4 -70 -17 -99 -12 -19 -41 -47 -64 -64 -34 -24 -55 -30 -115 -34
-66 -4 -80 -1 -128 23 -52 26 -142 90 -225 158 -22 19 -67 48 -100 66 -33 18
-81 48 -106 67 -26 19 -49 34 -52 34 -3 0 -25 13 -49 29 -41 28 -69 44 -168
100 -25 13 -47 28 -50 31 -9 12 -145 97 -213 134 -38 20 -110 62 -160 93 -51
31 -136 81 -191 110 -54 29 -110 62 -125 72 -14 10 -48 24 -76 31 -27 7 -57
19 -65 25 -8 7 -34 15 -56 18 -23 2 -66 17 -95 33 -140 73 -234 114 -374 164
-49 18 -106 43 -126 56 -19 13 -45 24 -57 24 -24 0 -193 -163 -217 -210 -8
-16 -21 -33 -29 -37 -33 -19 -253 -264 -303 -338 -30 -44 -76 -107 -103 -140
-49 -60 -101 -128 -182 -238 -24 -32 -60 -77 -82 -100 -21 -23 -54 -67 -74
-97 -19 -30 -52 -75 -73 -100 -22 -25 -54 -63 -73 -85 -105 -122 -129 -153
-146 -186 -10 -19 -26 -41 -34 -48 -9 -8 -16 -19 -16 -26 0 -8 -21 -37 -46
-67 -25 -29 -50 -62 -55 -73 -5 -11 -29 -47 -54 -80 -25 -33 -53 -71 -62 -85
-10 -14 -31 -43 -49 -65 -17 -22 -38 -53 -46 -70 -41 -81 -192 -393 -238 -490
-28 -60 -56 -119 -62 -130 -45 -77 -68 -122 -68 -136 0 -8 -11 -30 -25 -49
-14 -19 -25 -44 -25 -57 0 -13 -4 -23 -10 -23 -15 0 -92 -163 -120 -253 -13
-42 -31 -84 -62 -143 -14 -29 -29 -67 -33 -86 -4 -18 -27 -74 -51 -123 -24
-50 -44 -94 -44 -98 0 -3 -13 -27 -29 -52 -32 -51 -49 -129 -31 -150 9 -11 52
-12 226 -8 224 6 207 8 469 -44 44 -8 88 -20 98 -25 25 -13 110 -34 172 -43
58 -8 283 -95 335 -129 19 -13 53 -29 75 -37 22 -7 47 -19 56 -26 8 -7 23 -13
31 -13 9 0 22 -7 29 -16 8 -10 54 -36 104 -60 119 -58 159 -81 225 -129 30
-22 75 -51 100 -64 25 -14 59 -35 75 -48 41 -32 44 -34 92 -65 24 -16 46 -28
49 -28 14 0 120 -84 184 -145 140 -134 180 -174 287 -290 122 -133 173 -199
173 -225 0 -15 -14 -19 -92 -24 -309 -22 -422 -39 -553 -84 -49 -17 -119 -38
-155 -47 -80 -20 -188 -53 -215 -66 -11 -5 -51 -20 -90 -33 -167 -59 -241 -86
-260 -96 -11 -5 -45 -19 -75 -29 -134 -47 -399 -176 -465 -226 -16 -12 -41
-25 -55 -30 -32 -9 -183 -90 -235 -125 -22 -15 -66 -44 -97 -64 -230 -144
-287 -191 -583 -482 -85 -83 -279 -287 -319 -335 -16 -19 -102 -110 -191 -204
-206 -216 -248 -263 -315 -355 -30 -41 -62 -82 -72 -91 -10 -9 -18 -21 -18
-27 0 -6 -13 -23 -28 -39 -16 -15 -37 -41 -48 -58 -10 -16 -26 -36 -36 -43 -9
-6 -22 -28 -28 -47 -6 -19 -16 -35 -21 -35 -5 0 -14 -10 -19 -22 -6 -13 -20
-39 -33 -59 -12 -20 -38 -62 -57 -94 -19 -31 -50 -78 -67 -103 -18 -26 -44
-68 -58 -94 -13 -25 -36 -63 -50 -84 -28 -41 -31 -66 -12 -86 7 -7 23 -29 37
-48 13 -19 40 -54 59 -76 20 -23 46 -57 59 -75 13 -19 66 -92 118 -164 52 -71
98 -139 103 -150 5 -11 18 -29 30 -39 12 -11 32 -37 43 -58 12 -21 25 -38 28
-38 4 0 21 -20 39 -45 17 -24 39 -52 49 -61 9 -9 24 -27 32 -39 19 -28 100
-122 163 -189 26 -28 69 -80 95 -115 26 -35 68 -86 94 -113 26 -27 82 -92 125
-145 43 -53 103 -124 133 -157 31 -34 89 -99 130 -145 41 -47 95 -105 120
-130 25 -25 64 -71 86 -101 23 -30 68 -84 100 -120 32 -36 75 -85 96 -109 44
-52 75 -53 99 -3 26 57 163 185 257 241 22 13 52 35 66 48 14 12 28 23 31 23
8 0 197 129 225 155 14 12 48 34 75 50 120 66 141 78 156 91 8 8 24 14 33 14
10 0 31 9 47 20 15 12 113 64 216 116 103 53 206 106 228 119 66 38 221 114
305 150 77 33 79 33 102 16 32 -25 124 -71 142 -71 33 0 23 -19 -29 -55 -111
-76 -355 -343 -355 -388 0 -6 -11 -24 -24 -41 -59 -79 -153 -305 -166 -401 -5
-38 -10 -136 -10 -216 l0 -147 36 -31 c28 -26 42 -31 67 -26 18 2 75 7 127 11
52 3 122 7 155 9 33 3 112 1 174 -4 125 -9 141 -17 141 -75 0 -16 6 -55 14
-85 21 -82 38 -192 31 -200 -11 -10 -832 2 -967 14 -75 8 -78 9 -87 39 -6 17
-15 90 -21 161 -11 129 -4 261 30 540 5 44 12 121 16 172 7 90 6 93 -20 128
-36 46 -68 46 -129 0 -25 -19 -50 -35 -55 -35 -41 0 -407 -331 -469 -425 -15
-22 -37 -51 -48 -65 -12 -14 -44 -61 -71 -105 -26 -44 -51 -82 -55 -85 -4 -3
-21 -34 -38 -70 -17 -36 -42 -85 -56 -110 -13 -25 -25 -52 -25 -61 0 -26 -21
-79 -31 -79 -5 0 -24 17 -43 37 -99 108 -136 151 -136 157 0 8 -13 26 -80 111
-22 27 -40 54 -40 60 0 5 -24 36 -52 69 -29 32 -57 67 -63 76 -5 10 -34 46
-63 81 -30 35 -59 71 -66 79 -7 8 -46 54 -87 102 -93 109 -184 224 -276 353
-109 150 -132 181 -206 269 -38 45 -76 90 -86 101 -9 11 -27 36 -40 55 -13 19
-33 44 -43 55 -11 11 -38 45 -61 76 -79 107 -232 294 -277 339 -25 25 -68 75
-95 110 -28 36 -71 88 -96 116 -53 59 -111 133 -189 244 -30 43 -70 93 -88
111 -19 19 -42 50 -52 69 -10 19 -32 48 -49 64 -17 16 -36 44 -42 63 -10 31
-7 41 30 113 22 43 60 112 84 152 25 40 62 107 84 148 45 85 135 235 179 296
32 47 165 211 234 291 110 127 126 146 140 167 8 11 30 37 49 56 19 19 56 62
84 95 27 33 102 114 166 180 64 66 152 158 197 205 95 101 222 220 273 258 20
15 56 46 81 69 25 23 88 74 140 114 52 40 97 75 100 79 22 31 367 272 471 329
31 17 85 48 120 70 61 39 126 75 339 188 163 86 214 115 231 129 8 8 41 22 71
33 31 11 67 26 80 35 14 9 67 31 119 50 52 18 122 45 156 60 34 14 83 30 110
36 26 6 57 14 68 19 26 12 180 38 270 47 62 5 67 8 51 20 -11 7 -27 31 -36 52
-11 25 -55 71 -126 132 -59 52 -119 105 -132 118 -13 12 -51 36 -85 54 -34 17
-87 48 -117 68 -70 48 -245 157 -307 192 -60 33 -417 153 -528 177 -27 6 -72
18 -100 26 -128 37 -162 45 -187 45 -14 0 -64 8 -110 19 -177 40 -594 103
-761 116 l-88 7 6 41 c3 23 26 83 50 132 24 50 47 101 50 115 9 30 202 423
252 510 8 14 26 50 40 80 15 30 32 60 38 67 7 6 18 26 25 45 29 73 236 484
273 541 22 34 45 77 52 97 22 58 94 200 120 235 14 17 25 35 25 39 0 4 8 19
19 34 102 149 250 388 277 448 33 76 112 184 134 184 23 0 35 17 18 22 -13 5
21 78 64 140 10 14 18 32 18 40 0 14 94 146 135 190 14 14 35 44 47 65 12 21
25 40 28 43 9 7 234 320 256 355 10 17 39 55 64 85 69 83 97 123 113 162 17
40 122 156 180 198 20 16 59 55 85 88 26 33 85 102 131 153 46 52 115 129 153
172 l70 77 94 0 c112 0 269 -29 356 -65 35 -15 91 -33 126 -40 34 -7 68 -17
75 -22 6 -5 30 -15 52 -22 22 -8 74 -30 115 -49 41 -19 101 -43 133 -53 64
-20 265 -123 333 -169 23 -17 45 -30 47 -30 3 0 37 -18 76 -40 39 -22 77 -40
85 -40 8 0 16 -3 18 -7 3 -8 122 -91 182 -127 156 -95 324 -216 389 -280 47
-46 71 -54 141 -47 10 0 25 -4 32 -10 11 -9 14 -7 14 9 0 46 -13 80 -36 93
-13 7 -24 18 -24 25 0 6 -7 14 -15 18 -8 3 -15 1 -15 -4 0 -6 -9 -10 -19 -10
-12 0 -32 21 -56 58 -53 81 -51 78 -146 203 -47 63 -106 137 -131 164 -25 28
-62 73 -83 100 -21 28 -56 68 -79 90 -22 22 -67 68 -99 102 -32 35 -68 69 -79
77 -12 9 -71 62 -132 119 -61 57 -127 117 -146 133 -19 15 -62 53 -96 83 -128
117 -192 172 -274 235 -131 101 -132 103 -125 128 15 56 49 107 209 313 47 61
108 140 135 178 72 98 125 159 325 372 203 215 296 301 409 378 47 32 55 32
128 11z m99 -444 c104 -46 370 -215 580 -369 246 -181 285 -211 407 -316 235
-201 303 -275 488 -521 28 -37 71 -92 96 -123 26 -31 57 -77 70 -101 13 -25
36 -61 50 -80 15 -19 50 -79 78 -134 28 -54 62 -112 76 -130 39 -52 165 -322
165 -355 0 -9 8 -28 18 -41 9 -14 24 -47 34 -75 55 -166 120 -251 238 -308 55
-26 76 -31 137 -30 124 1 167 44 242 243 33 87 36 178 11 295 -12 55 -26 118
-30 140 -5 22 -20 76 -34 120 -14 44 -26 85 -26 91 0 7 -6 34 -14 60 -8 27
-22 78 -31 114 -9 36 -20 79 -25 95 -5 17 -11 46 -15 65 -4 19 -16 54 -26 76
-10 23 -24 64 -30 90 -17 68 -70 226 -125 374 -52 140 -70 198 -79 263 l-7 45
64 -3 c65 -3 377 32 528 60 185 35 297 49 510 65 186 14 174 15 165 -17 -4
-16 -10 -62 -15 -103 -4 -41 -18 -127 -30 -190 -11 -63 -25 -144 -30 -180 -5
-36 -25 -152 -44 -257 -42 -231 -54 -348 -60 -592 -5 -229 14 -350 78 -479 24
-50 103 -135 146 -157 65 -33 118 -37 197 -14 41 12 76 26 79 31 3 4 12 8 20
8 18 0 39 18 129 107 65 64 113 128 321 418 35 50 105 146 156 214 51 68 107
144 124 170 82 120 432 504 583 639 110 98 154 123 176 101 15 -15 61 -100
168 -309 78 -153 194 -366 217 -400 10 -14 27 -46 38 -72 11 -26 37 -68 56
-94 20 -26 36 -50 36 -54 0 -5 -39 -24 -87 -45 -153 -63 -386 -221 -502 -340
-36 -36 -68 -65 -72 -65 -26 0 -389 -373 -389 -399 0 -5 -20 -31 -44 -57 -38
-43 -72 -99 -145 -239 -24 -46 -91 -219 -91 -235 0 -6 -20 -71 -44 -143 -59
-179 -70 -239 -63 -347 7 -103 29 -155 80 -186 35 -21 74 -21 192 -2 81 13
108 28 263 147 62 47 132 98 155 114 23 15 60 46 82 70 49 51 165 141 226 174
24 14 60 35 79 48 100 66 167 104 309 177 86 44 161 84 166 88 24 19 324 188
346 195 13 4 44 20 69 35 25 15 56 31 70 35 14 4 52 21 84 37 60 30 232 106
401 178 50 21 123 54 163 74 69 35 148 70 277 122 33 14 68 29 78 35 19 11 63
25 187 62 131 40 134 40 152 20 30 -34 159 -248 195 -323 57 -119 111 -225
144 -282 16 -29 44 -82 62 -118 17 -36 65 -111 107 -166 41 -56 87 -124 103
-150 15 -27 45 -76 67 -109 21 -33 52 -85 67 -115 51 -99 106 -194 160 -276
29 -45 53 -85 53 -89 0 -5 6 -16 14 -24 14 -16 60 -93 121 -206 55 -101 106
-189 119 -205 7 -8 37 -57 67 -109 30 -51 64 -110 77 -130 12 -20 30 -49 38
-66 9 -16 28 -52 44 -80 16 -27 35 -61 41 -75 7 -14 21 -37 32 -53 22 -32 26
-30 -102 -47 -52 -7 -119 -21 -150 -32 -31 -11 -72 -24 -91 -28 -126 -28 -351
-99 -405 -127 -11 -6 -36 -13 -55 -17 -32 -6 -183 -51 -375 -113 -44 -14 -105
-38 -136 -53 -31 -15 -73 -33 -93 -40 -64 -21 -236 -107 -331 -165 -49 -30
-106 -62 -125 -71 -19 -9 -42 -22 -50 -29 -8 -7 -71 -41 -140 -76 -69 -34
-161 -86 -205 -114 -44 -28 -104 -64 -134 -79 -57 -29 -155 -98 -166 -116 -4
-6 -25 -23 -48 -37 -23 -14 -63 -46 -89 -71 -26 -25 -58 -52 -71 -61 -64 -42
-270 -228 -324 -294 -54 -64 -147 -147 -155 -139 -11 11 -14 452 -5 667 5 111
4 249 -2 360 -10 169 -25 661 -22 732 1 28 -5 37 -42 60 -52 34 142 30 -1812
37 -1642 7 -3250 16 -3603 20 l-212 3 -38 43 c-20 24 -45 57 -56 74 -10 17
-39 56 -65 86 -26 30 -54 66 -63 79 -20 28 -135 148 -199 207 -24 22 -96 96
-159 164 -63 68 -131 137 -150 154 -18 17 -66 61 -105 98 -39 37 -98 89 -132
115 -159 125 -256 198 -266 202 -7 2 -33 21 -59 42 -26 22 -84 62 -130 90 -46
28 -97 62 -115 75 -17 13 -75 46 -129 74 -53 27 -101 54 -108 59 -22 17 -453
190 -521 208 -11 3 -83 24 -160 48 -77 23 -182 55 -233 71 -51 15 -96 32 -98
36 -3 5 11 31 30 58 20 28 36 53 36 58 1 33 494 563 538 576 14 5 44 -1 85
-18 34 -13 76 -28 92 -32 17 -4 35 -10 40 -15 6 -4 39 -18 75 -32 36 -13 106
-45 155 -70 50 -25 119 -55 155 -66 36 -12 74 -25 85 -31 11 -5 47 -20 80 -34
53 -21 245 -119 285 -145 8 -6 83 -48 165 -94 83 -46 166 -94 185 -106 19 -12
76 -47 125 -78 235 -146 404 -260 585 -392 l164 -121 102 0 c121 0 160 13 246
85 68 56 82 91 75 185 -5 81 -16 120 -56 204 -17 36 -31 74 -31 84 0 24 -59
142 -71 142 -5 0 -9 6 -9 14 0 8 -14 30 -30 48 -17 18 -45 58 -62 88 -65 116
-206 303 -310 413 -21 22 -38 41 -38 44 0 3 -38 44 -84 91 -46 48 -99 105
-117 127 -19 21 -51 54 -71 73 -21 19 -38 40 -38 48 0 7 -10 20 -22 28 -12 9
-70 62 -128 119 -58 57 -121 114 -140 127 -19 13 -71 56 -115 95 -44 38 -98
84 -120 100 -88 67 -236 155 -261 155 -18 0 -57 47 -45 55 6 3 21 25 32 48 19
37 84 131 114 163 6 6 19 23 30 39 17 24 69 81 175 195 14 15 48 55 75 89 59
74 103 117 205 200 66 54 80 61 118 61 27 0 70 -12 112 -30z m-2330 -2665 c41
-14 120 -38 175 -54 228 -67 372 -113 400 -127 44 -22 193 -84 245 -101 25 -8
52 -21 60 -28 8 -7 49 -29 90 -50 41 -20 112 -60 157 -88 45 -29 111 -70 145
-91 72 -46 249 -178 268 -201 7 -8 18 -15 25 -15 7 0 18 -7 25 -15 7 -9 40
-36 74 -61 66 -49 243 -210 285 -259 14 -16 104 -108 200 -205 175 -175 261
-270 316 -345 16 -22 41 -53 56 -70 15 -16 30 -40 34 -52 3 -13 11 -23 16 -23
6 0 7 -4 4 -10 -7 -11 -154 -13 -171 -2 -6 4 -34 34 -61 67 -27 33 -88 101
-134 151 -46 50 -111 123 -144 163 -65 78 -408 404 -460 436 -17 11 -58 43
-91 72 -97 85 -148 125 -174 136 -14 6 -34 18 -45 28 -11 9 -32 23 -47 30 -14
8 -93 54 -175 103 -81 49 -184 110 -228 137 -150 89 -527 259 -576 259 -6 0
-46 11 -88 25 -129 41 -244 74 -286 80 -22 3 -59 13 -83 22 -37 13 -42 18 -36
36 4 12 18 37 32 56 25 31 29 33 72 27 25 -3 79 -17 120 -31z m-205 -166 c147
-22 635 -174 711 -220 21 -14 66 -35 99 -49 49 -20 156 -76 237 -125 9 -5 43
-25 75 -44 143 -85 211 -127 258 -161 28 -20 81 -51 118 -70 38 -19 102 -64
141 -100 124 -111 160 -141 181 -152 11 -6 39 -29 61 -52 49 -49 169 -162 204
-193 31 -27 61 -61 160 -183 42 -52 116 -135 164 -185 47 -49 86 -94 86 -98 0
-15 -380 -7 -442 10 -84 23 -92 14 -82 -96 6 -79 6 -613 -1 -741 -5 -110 -16
-318 -21 -428 -2 -62 -7 -119 -10 -127 -4 -10 -24 2 -75 44 -38 32 -101 78
-140 102 -39 24 -98 64 -132 89 -137 103 -166 123 -242 173 -63 42 -276 169
-487 292 -9 6 -59 35 -110 66 -51 31 -131 76 -178 99 -47 23 -94 47 -105 53
-66 37 -113 56 -132 57 -12 0 -23 4 -25 8 -4 11 -205 86 -284 106 -34 9 -77
23 -97 31 -39 16 -190 53 -247 61 -19 2 -48 8 -65 13 -71 22 -320 41 -592 46
-130 3 -231 9 -243 15 -19 10 -19 11 0 30 11 11 20 27 20 36 0 9 16 46 35 83
19 36 81 161 139 276 113 227 210 401 268 480 20 28 57 79 82 115 116 167 159
228 184 262 38 52 175 225 250 314 34 41 62 78 62 82 0 4 21 29 46 55 33 36
50 47 62 41 9 -4 40 -10 67 -15z m3657 -1711 c125 0 165 -3 162 -12 -5 -13 94
-11 151 3 17 4 80 7 140 5 61 -1 223 -2 360 -2 138 0 261 0 275 0 14 -1 108
-3 210 -6 260 -7 431 -14 530 -21 47 -3 173 -8 280 -11 107 -3 209 -6 225 -7
17 0 59 0 95 2 36 1 198 1 360 0 162 -1 324 -1 360 1 36 2 106 1 157 -3 51 -3
95 -3 97 2 3 4 28 5 56 0 33 -5 61 -4 83 4 58 21 478 13 537 -10 37 -15 108
-11 127 7 16 14 24 15 39 6 10 -6 55 -12 99 -13 309 -7 468 -13 472 -16 6 -7
24 -316 24 -422 0 -55 5 -188 11 -296 8 -147 8 -241 0 -375 -14 -210 -14 -246
-7 -634 3 -162 10 -313 15 -336 12 -52 25 -350 35 -779 10 -436 19 -647 31
-675 3 -8 10 -64 16 -125 18 -216 40 -386 78 -611 5 -34 10 -84 10 -111 0 -49
47 -306 71 -388 6 -22 19 -77 29 -122 17 -84 59 -163 86 -163 8 0 14 3 14 8 0
4 14 23 30 42 16 19 30 40 30 46 0 6 9 19 20 29 10 9 37 47 59 84 46 77 139
163 220 205 31 15 64 33 75 38 10 5 37 16 60 23 22 7 66 23 96 34 111 42 199
20 291 -74 57 -58 121 -160 146 -233 8 -24 21 -77 28 -118 8 -41 18 -86 21
-99 5 -20 3 -24 -10 -19 -9 3 -16 17 -16 29 0 34 -10 55 -27 55 -11 0 -13 7
-8 29 4 21 2 30 -9 34 -9 4 -16 15 -16 25 0 10 -9 28 -20 40 -23 24 -26 58 -7
65 9 4 9 6 0 6 -22 2 -34 -35 -21 -63 6 -14 15 -26 20 -26 4 0 8 -13 8 -29 0
-32 15 -72 44 -114 11 -16 21 -47 23 -70 3 -23 9 -45 15 -48 18 -12 41 -81 44
-139 6 -87 33 -319 47 -395 8 -46 12 -185 12 -410 0 -360 -1 -371 -52 -468
-54 -106 -159 -154 -353 -164 -70 -3 -126 -11 -144 -20 -34 -18 -33 -30 13
-178 44 -141 71 -284 78 -400 5 -92 -21 -519 -33 -555 -3 -8 -12 -55 -20 -105
-14 -83 -48 -217 -62 -240 -3 -5 -7 -17 -7 -25 -2 -30 -39 -119 -47 -114 -4 3
-8 -1 -8 -9 0 -8 -7 -20 -15 -27 -8 -7 -14 -22 -13 -34 0 -11 -13 -48 -31 -81
-17 -33 -31 -66 -31 -73 0 -7 -13 -32 -28 -55 -16 -23 -41 -68 -56 -99 -26
-55 -186 -291 -239 -353 -15 -16 -39 -46 -54 -66 -58 -74 -208 -211 -378 -345
-94 -75 -483 -263 -518 -251 -6 2 -24 -2 -38 -9 -15 -7 -59 -20 -98 -28 -40
-8 -87 -22 -104 -31 -94 -48 -229 -84 -457 -121 -307 -49 -335 -53 -381 -54
-25 0 -105 -11 -177 -24 -98 -18 -151 -34 -211 -63 -71 -34 -83 -37 -103 -26
-32 17 -78 16 -188 -8 -217 -45 -208 -44 -243 -27 -29 14 -41 14 -102 2 -58
-11 -144 -11 -490 -2 -231 7 -436 11 -455 10 -109 -7 -178 -1 -253 19 -112 31
-306 31 -455 -1 -96 -20 -105 -20 -122 -5 -20 18 -91 31 -265 45 -252 22 -353
35 -425 56 -30 9 -123 31 -206 49 -164 35 -288 66 -374 95 -113 38 -176 62
-197 76 -13 8 -69 34 -125 58 -133 58 -374 181 -408 209 -14 12 -50 33 -80 46
-30 14 -87 51 -126 82 -40 32 -112 85 -162 118 -50 34 -93 69 -96 79 -4 10
-28 29 -55 42 -70 35 -300 245 -406 370 -79 94 -92 110 -120 146 -16 21 -70
82 -120 134 -83 88 -116 136 -193 285 -25 48 -52 138 -52 172 0 14 -7 51 -15
82 -8 31 -15 92 -17 136 -2 88 16 280 32 335 5 19 10 50 10 68 0 17 11 78 24
135 13 56 31 147 40 202 9 55 23 136 31 180 8 44 19 118 25 165 7 47 18 102
26 123 23 61 18 129 -10 156 -28 26 -39 25 -131 -20 -142 -67 -234 -45 -358
87 -40 42 -80 89 -90 105 -29 45 -92 209 -106 274 -6 33 -17 80 -23 105 -6 25
-13 108 -15 185 -6 164 24 399 59 468 11 22 17 48 15 59 -11 41 62 293 103
358 9 14 25 48 35 75 51 140 164 303 260 375 19 14 58 43 87 66 76 58 161 96
215 96 55 0 233 -79 233 -103 0 -6 11 -21 24 -34 14 -14 40 -46 58 -71 18 -26
46 -65 62 -88 16 -23 47 -75 69 -116 61 -117 92 -130 125 -52 19 45 47 141 59
207 3 17 21 89 40 160 20 72 39 153 43 180 9 52 28 127 53 205 8 25 25 90 37
145 13 55 31 132 40 170 52 202 69 298 120 645 16 112 29 272 51 620 23 385
29 466 39 615 6 88 18 333 26 545 8 212 17 405 19 430 3 25 5 226 5 447 l0
402 23 4 c12 2 335 2 717 0 382 -2 770 -4 862 -5z m-4264 -157 c9 -4 51 -11
94 -14 42 -4 96 -11 120 -17 23 -5 88 -19 143 -31 55 -11 109 -24 120 -28 22
-9 94 -34 140 -49 17 -6 48 -15 70 -20 80 -20 264 -90 331 -127 38 -20 110
-58 159 -82 50 -25 165 -92 256 -149 92 -57 170 -104 173 -104 4 0 19 -8 34
-19 57 -39 139 -88 187 -112 28 -13 52 -27 55 -30 3 -4 43 -32 90 -64 47 -31
99 -70 115 -85 17 -15 63 -50 104 -76 40 -27 97 -64 125 -83 28 -18 74 -55
102 -81 27 -26 64 -55 82 -64 45 -23 54 -46 46 -116 l-7 -60 -41 38 c-22 20
-59 48 -81 62 -22 13 -59 40 -81 59 -23 20 -79 57 -125 84 -89 50 -193 119
-324 215 -138 101 -491 307 -606 355 -30 12 -60 27 -67 34 -23 22 -295 151
-383 182 -30 10 -76 28 -104 39 -70 27 -616 159 -775 186 -93 16 -377 36 -562
39 -65 1 -118 3 -118 5 0 7 53 108 64 121 9 11 65 13 329 7 175 -3 326 -10
335 -15z m12497 -80 c22 -4 36 -18 53 -49 13 -24 23 -45 21 -46 -2 -2 -29 -6
-59 -10 -30 -3 -127 -24 -215 -47 -88 -23 -203 -52 -255 -64 -115 -27 -325
-97 -371 -124 -19 -10 -79 -31 -134 -46 -137 -37 -405 -134 -490 -178 -38 -20
-86 -43 -105 -52 -19 -8 -57 -28 -85 -44 -27 -17 -84 -47 -125 -67 -41 -20
-84 -45 -95 -54 -11 -10 -31 -20 -45 -23 -14 -3 -78 -38 -142 -77 -65 -38
-120 -70 -123 -70 -4 0 -32 -19 -63 -43 -31 -24 -73 -53 -92 -65 -19 -11 -46
-31 -60 -44 -14 -13 -52 -41 -85 -63 -32 -22 -82 -61 -109 -86 -28 -25 -69
-57 -91 -72 -45 -29 -224 -198 -446 -419 -81 -82 -152 -148 -158 -148 -13 0
-15 19 -12 115 3 68 4 71 41 103 21 17 50 52 65 77 14 25 31 45 36 45 6 0 66
55 133 123 67 67 164 157 216 199 52 42 120 98 150 122 109 90 156 125 212
158 32 18 113 65 180 104 68 40 134 75 147 79 14 4 45 20 70 35 26 16 66 36
91 46 25 10 58 28 73 41 16 13 33 23 39 23 6 0 47 24 92 53 91 60 113 72 241
129 138 62 308 126 430 163 61 18 137 42 170 54 239 86 639 207 735 221 57 9
126 9 165 1z m-12745 -130 c74 -5 142 -12 150 -15 8 -3 51 -12 95 -20 44 -8
125 -25 180 -39 55 -14 120 -28 145 -32 42 -5 75 -14 145 -36 17 -6 39 -12 50
-14 123 -26 149 -34 230 -71 28 -13 77 -30 110 -38 60 -16 190 -77 385 -183
58 -31 139 -74 180 -96 144 -75 223 -123 362 -220 46 -31 160 -109 253 -171
150 -101 205 -140 280 -200 117 -94 165 -117 196 -97 10 6 21 11 23 11 3 0 3
-42 1 -92 -2 -51 -6 -145 -9 -208 -3 -63 -10 -178 -16 -255 -20 -254 -32 -439
-36 -535 -2 -52 -8 -119 -14 -149 -5 -29 -10 -83 -10 -118 0 -36 -6 -91 -14
-122 -8 -31 -19 -108 -26 -171 -6 -63 -18 -135 -25 -160 -7 -25 -19 -79 -26
-120 -6 -41 -16 -82 -20 -91 -4 -9 -17 -63 -29 -120 -12 -57 -30 -135 -42
-174 -11 -38 -28 -104 -39 -145 -33 -135 -99 -394 -113 -450 -8 -30 -18 -73
-23 -95 -4 -22 -14 -40 -21 -40 -7 0 -27 23 -45 52 -30 48 -133 185 -181 240
-37 43 -101 80 -152 88 -27 4 -55 12 -62 17 -19 16 -111 15 -162 -2 -48 -15
-78 -32 -208 -118 -76 -50 -214 -190 -230 -232 -3 -8 -14 -27 -24 -42 -27 -40
-88 -161 -88 -177 0 -7 -11 -34 -24 -60 -44 -82 -74 -165 -90 -246 -8 -44 -22
-102 -31 -130 -9 -27 -22 -73 -30 -102 -18 -63 -48 -397 -40 -434 9 -41 -42
-75 -141 -95 -57 -11 -121 -36 -230 -89 -83 -41 -161 -79 -175 -85 -33 -14
-160 -84 -244 -135 -38 -23 -116 -68 -173 -101 -173 -100 -243 -144 -361 -233
-41 -31 -87 -63 -102 -71 -28 -15 -98 -71 -218 -171 -36 -31 -71 -58 -78 -60
-6 -2 -63 -52 -127 -112 l-114 -107 -29 28 c-15 16 -33 31 -39 33 -15 6 -95
109 -105 136 -5 13 -12 23 -17 23 -10 0 -80 91 -101 133 -13 25 -70 99 -118
152 -9 11 -47 53 -83 94 -36 42 -75 87 -87 101 -60 68 -106 126 -155 192 -29
40 -63 87 -76 103 -12 17 -44 62 -71 100 -27 39 -56 77 -65 84 -9 7 -16 18
-16 23 0 5 -19 33 -43 61 -24 29 -60 78 -80 109 -21 31 -42 60 -48 63 -5 4
-21 23 -34 43 -14 21 -32 47 -40 59 -15 20 -13 26 28 105 24 45 55 101 68 123
13 22 51 87 84 144 33 57 85 138 116 180 31 42 64 90 73 106 37 69 226 307
285 359 11 11 21 22 21 26 0 4 26 34 58 67 31 33 140 147 242 254 415 435 672
675 819 764 9 6 77 50 151 99 74 49 171 107 215 128 44 22 89 44 100 50 11 6
29 16 40 22 11 6 40 23 65 37 25 15 90 46 145 69 55 24 107 49 116 56 8 8 23
14 33 14 15 0 137 44 229 83 80 34 359 126 487 162 52 15 127 37 165 50 64 21
154 38 275 50 116 12 154 15 280 20 155 7 183 16 173 54 -20 80 -298 400 -550
633 -40 37 -123 101 -185 142 -62 41 -144 98 -183 126 -38 28 -84 57 -101 65
-17 7 -36 21 -44 29 -7 9 -16 16 -20 16 -5 0 -46 21 -92 48 -69 39 -237 127
-415 216 -39 20 -109 47 -248 97 -44 15 -123 37 -175 48 -52 10 -122 26 -155
34 -33 8 -87 20 -120 27 -33 6 -78 16 -100 22 -22 6 -125 10 -232 10 -106 -1
-193 2 -193 6 0 20 34 113 68 190 22 48 47 109 56 135 16 47 73 181 104 244
14 28 22 33 62 36 63 6 309 0 470 -12z m12932 -113 c18 -29 42 -69 53 -89 26
-48 138 -243 272 -474 12 -22 33 -62 46 -90 l24 -50 -26 -12 c-14 -6 -57 -21
-96 -33 -38 -12 -104 -38 -145 -57 -41 -20 -115 -55 -165 -78 -208 -95 -550
-296 -626 -367 -15 -14 -55 -47 -90 -74 -35 -27 -80 -62 -100 -79 -20 -16 -60
-48 -88 -70 -177 -135 -432 -376 -491 -465 -19 -29 -50 -67 -68 -85 -28 -28
-31 -35 -23 -58 17 -43 34 -46 223 -38 186 8 675 6 843 -4 55 -3 241 -5 413
-4 171 0 320 1 330 1 9 0 42 -3 72 -6 30 -4 140 -8 243 -10 115 -2 193 -8 199
-14 12 -12 13 -72 10 -990 0 -92 -11 -128 -37 -119 -6 3 -19 -1 -29 -9 -23
-16 -269 -18 -466 -3 -117 9 -395 12 -610 6 -64 -2 -65 -2 -68 -32 -2 -16 -10
-38 -17 -48 -10 -15 -14 -71 -15 -230 -1 -230 3 -247 59 -247 33 0 216 -47
244 -62 12 -7 42 -15 67 -19 84 -14 181 -56 245 -107 6 -4 35 -19 65 -34 30
-14 74 -42 98 -62 24 -19 74 -52 110 -71 37 -19 96 -60 132 -90 35 -30 67 -55
71 -55 4 0 31 -20 61 -43 29 -24 71 -55 93 -69 53 -34 287 -266 280 -278 -4
-6 -1 -10 5 -10 7 0 24 -12 39 -27 14 -16 44 -45 66 -65 22 -20 58 -60 80 -88
22 -28 52 -59 67 -68 16 -9 28 -20 28 -24 0 -8 238 -268 272 -298 9 -8 20 -27
24 -42 6 -25 -9 -43 -173 -205 -98 -98 -210 -208 -248 -244 -39 -36 -90 -88
-113 -115 -24 -27 -88 -94 -141 -149 -54 -55 -110 -119 -125 -142 -16 -23 -67
-76 -115 -117 -47 -41 -104 -94 -126 -117 -22 -23 -62 -59 -90 -79 -27 -21
-109 -96 -181 -167 l-131 -128 -16 25 c-31 49 -80 116 -136 184 -110 135 -158
192 -195 231 -21 22 -98 105 -171 185 -137 148 -331 337 -490 475 -50 43 -133
121 -185 172 -52 52 -104 102 -115 112 -123 109 -196 171 -225 191 -19 14 -62
46 -94 72 -33 27 -65 48 -71 48 -6 0 -26 16 -45 35 -19 19 -39 35 -45 35 -7 0
-30 13 -51 28 -21 15 -73 47 -114 71 -41 25 -88 54 -105 67 -16 12 -62 38
-101 59 l-71 37 -17 91 c-31 167 -39 201 -62 275 -31 98 -74 176 -141 257 -46
56 -68 73 -132 103 -62 30 -86 36 -129 34 -60 -2 -197 -34 -239 -55 -15 -8
-41 -17 -56 -21 -16 -4 -65 -27 -110 -51 -95 -51 -179 -133 -251 -242 -26 -40
-49 -73 -52 -73 -7 0 -34 72 -34 94 0 11 -8 41 -16 66 -17 46 -27 110 -44 265
-6 50 -22 158 -36 240 -28 166 -39 243 -53 385 -6 52 -12 113 -15 135 -2 22
-7 72 -11 110 -4 39 -9 88 -12 110 -12 100 -20 256 -22 445 -1 113 -6 248 -11
300 -5 52 -10 205 -12 340 l-3 245 30 3 c24 3 70 44 220 194 256 256 344 341
380 363 17 10 64 46 105 80 130 106 246 192 288 214 22 11 43 25 47 31 13 20
152 103 321 190 97 50 206 110 242 132 37 23 101 56 142 75 41 18 92 43 112
53 44 25 205 87 271 106 63 17 291 95 397 135 145 54 222 77 330 99 30 6 69
16 85 22 17 5 57 16 90 24 33 7 89 22 125 33 41 12 97 20 152 20 l86 1 34 -52z
m-1930 -4911 c20 -7 45 -20 55 -29 24 -21 137 -92 241 -152 46 -26 91 -55 101
-64 10 -9 53 -42 95 -72 83 -59 102 -74 156 -124 19 -17 78 -70 130 -116 52
-46 133 -123 180 -170 47 -48 110 -107 140 -131 104 -83 379 -352 511 -500 35
-39 101 -110 147 -156 45 -47 90 -99 98 -116 9 -18 31 -48 49 -67 18 -19 50
-60 70 -90 55 -79 77 -109 102 -134 l22 -23 -48 -47 c-46 -45 -49 -47 -56 -27
-3 12 -41 61 -83 109 -43 48 -91 105 -107 127 -16 22 -47 58 -69 80 -21 22
-50 56 -63 75 -53 78 -77 109 -151 190 -95 104 -371 375 -512 501 -57 52 -127
117 -155 146 -27 28 -72 70 -100 93 -27 24 -77 68 -110 99 -33 31 -80 72 -105
91 -25 19 -54 43 -66 55 -34 34 -186 140 -249 175 -33 18 -71 43 -85 55 -14
12 -57 40 -96 63 -88 51 -96 61 -102 122 -5 56 -2 58 60 37z m4 -238 c3 -6 23
-18 42 -26 30 -13 105 -59 222 -136 26 -18 115 -88 247 -196 43 -36 121 -106
173 -156 241 -231 310 -296 375 -356 39 -35 103 -97 144 -139 41 -41 89 -86
107 -100 32 -25 177 -188 244 -275 19 -26 51 -65 71 -88 19 -23 66 -80 102
-127 37 -47 86 -107 108 -134 22 -27 46 -58 54 -69 8 -11 30 -23 49 -26 l35
-6 -53 -47 -54 -48 -50 63 c-27 35 -61 81 -74 103 -34 52 -140 154 -208 200
-123 82 -452 254 -486 254 -3 0 -57 20 -120 45 -62 25 -140 51 -172 59 -32 7
-77 26 -100 41 -39 25 -43 26 -64 12 -37 -24 -65 -54 -110 -115 -23 -31 -68
-86 -99 -122 -31 -36 -62 -75 -68 -88 -15 -28 -15 -27 91 -134 70 -71 86 -95
139 -213 14 -32 47 -188 70 -335 17 -107 20 -158 15 -245 -10 -158 -20 -233
-34 -247 -8 -8 -58 -13 -145 -15 -160 -4 -688 -7 -886 -5 -143 2 -143 2 -138
25 34 149 47 209 51 238 3 19 10 68 16 109 6 41 13 118 16 170 2 52 8 125 14
162 5 37 10 102 10 145 0 73 -28 257 -49 327 -18 60 -30 112 -37 163 -6 50 -6
52 24 67 34 18 62 21 62 7 0 -5 9 -7 20 -4 11 3 20 9 20 14 0 5 10 9 23 9 44
0 136 30 181 58 116 74 181 183 197 331 14 137 11 622 -4 724 -8 49 -12 99 -9
113 4 25 26 32 38 13z m-10047 -330 c20 -58 15 -71 -22 -64 -20 4 -43 1 -62
-9 -17 -9 -37 -16 -46 -16 -72 0 -767 -366 -931 -489 -26 -20 -75 -54 -110
-76 -68 -42 -107 -71 -205 -150 -34 -27 -92 -72 -129 -100 -36 -27 -121 -107
-189 -177 -67 -70 -127 -128 -132 -130 -5 -2 -22 12 -37 30 -27 31 -28 33 -13
65 16 34 35 52 194 191 107 95 284 235 321 255 15 8 52 35 83 60 32 25 88 64
125 86 37 22 103 64 147 93 44 28 84 52 89 52 4 0 37 18 72 40 35 22 67 40 72
40 5 0 27 14 48 30 22 17 47 30 57 30 10 0 21 4 24 10 3 5 65 39 138 76 73 36
146 74 162 84 37 23 138 58 230 81 98 24 102 23 114 -12z m27 -130 c3 -6 12
-32 19 -57 41 -149 80 -235 137 -302 l38 -45 -23 -17 c-12 -10 -40 -26 -62
-37 -22 -10 -97 -46 -167 -79 -71 -33 -140 -69 -155 -79 -16 -11 -79 -43 -142
-72 -63 -30 -141 -70 -175 -89 -34 -19 -107 -59 -164 -87 -56 -29 -111 -60
-122 -70 -11 -10 -42 -28 -70 -41 -27 -13 -60 -34 -73 -46 -30 -32 -113 -91
-163 -116 -22 -11 -55 -35 -74 -52 -18 -17 -60 -50 -94 -73 -34 -23 -79 -56
-100 -74 -22 -18 -46 -33 -53 -33 -7 0 -13 -4 -13 -10 0 -5 -18 -23 -41 -39
l-40 -30 -35 21 c-30 18 -154 159 -154 176 0 4 -14 23 -30 42 -16 19 -30 42
-30 51 0 50 293 332 475 459 28 19 56 40 63 47 7 7 17 13 20 13 8 0 138 90
162 113 8 7 38 26 65 42 28 15 59 35 70 45 48 41 514 287 622 328 15 6 39 17
53 25 29 16 103 43 175 63 27 7 51 18 53 24 5 13 19 13 28 -1z m704 -547 c0
-5 -11 -80 -25 -168 -14 -87 -30 -195 -36 -238 -5 -44 -12 -82 -14 -86 -2 -3
-6 -26 -9 -51 -3 -24 -13 -70 -21 -102 -16 -60 -31 -149 -65 -367 -32 -206
-30 -201 -57 -211 -13 -5 -54 -6 -91 -3 -37 3 -159 1 -272 -5 -160 -8 -206 -8
-213 2 -4 6 -6 80 -4 162 5 143 7 156 45 265 22 63 55 142 75 175 124 211 146
241 240 335 94 95 224 192 297 222 19 8 57 29 84 47 51 32 66 37 66 23z
m-2695 -1924 c93 -33 136 -56 226 -120 41 -30 104 -72 140 -94 147 -89 238
-169 373 -327 l49 -58 -45 -47 c-48 -50 -66 -78 -99 -157 -11 -27 -28 -58 -36
-67 -15 -17 -18 -16 -47 12 -73 70 -331 286 -441 370 -190 145 -303 182 -423
140 -128 -44 -199 -100 -271 -211 -51 -78 -82 -163 -115 -309 -35 -162 -50
-315 -42 -440 4 -58 8 -123 9 -146 3 -52 108 -273 192 -404 79 -121 259 -268
382 -312 100 -35 271 -18 357 35 115 71 195 128 271 196 l80 71 25 -28 c14
-15 36 -33 50 -40 30 -14 54 -29 97 -60 l32 -22 -21 -36 c-28 -48 -126 -146
-208 -209 -139 -105 -237 -152 -410 -193 -79 -19 -258 -35 -322 -29 -148 15
-306 91 -436 209 -39 36 -92 110 -92 129 0 7 -8 30 -19 53 -10 23 -29 73 -41
111 -13 39 -41 104 -64 145 -62 113 -85 169 -112 265 -9 33 -20 65 -24 70 -13
17 -29 196 -26 295 3 71 10 113 30 169 14 41 26 93 26 115 0 40 37 201 60 261
16 42 39 65 65 65 37 0 48 24 41 88 -5 46 -1 67 18 114 29 72 48 95 176 230
117 122 140 138 200 138 33 0 43 4 47 20 14 52 208 57 348 8z m-163 -419 c84
-18 139 -53 354 -228 197 -159 314 -268 346 -320 21 -33 21 -34 4 -150 -9 -64
-21 -141 -25 -171 -5 -30 -9 -152 -10 -269 -2 -159 -6 -222 -16 -241 -19 -36
-127 -135 -169 -155 -19 -9 -62 -41 -97 -71 -34 -30 -65 -54 -69 -54 -9 0 -2
102 11 166 5 28 12 75 14 105 2 30 6 79 9 109 3 30 10 150 16 265 14 284 18
345 35 607 l5 77 -37 18 c-46 22 -172 25 -196 4 -9 -7 -19 -29 -22 -50 -4 -20
-17 -85 -30 -146 -13 -60 -29 -157 -36 -215 -17 -158 -32 -215 -55 -214 -19 2
-115 38 -144 55 -8 5 -50 27 -92 49 -51 26 -101 63 -148 110 -39 39 -83 78
-97 87 -22 15 -24 21 -20 67 2 28 9 67 15 86 6 19 22 72 35 116 13 45 38 105
55 133 18 28 32 55 32 59 0 17 104 115 138 129 31 13 132 51 139 53 1 0 26 -5
55 -11z m306 -381 c15 -15 15 -76 2 -262 -5 -77 -17 -274 -25 -436 -9 -162
-20 -315 -25 -340 -13 -65 -33 -200 -33 -232 0 -23 -6 -29 -34 -34 -57 -11
-66 -1 -59 59 13 110 24 280 19 310 -6 44 -27 61 -111 91 -95 34 -169 69 -262
124 -88 53 -130 91 -211 189 -56 68 -59 74 -59 127 0 30 4 57 8 60 9 5 122
-81 122 -93 0 -29 269 -168 399 -206 l64 -19 18 23 c11 13 19 38 19 55 0 17 6
56 14 86 7 30 16 98 20 150 5 81 15 132 62 310 11 43 48 62 72 38z m1215 -168
c78 -5 205 -12 282 -15 77 -2 223 -11 325 -20 102 -8 273 -21 380 -30 107 -8
240 -19 295 -24 55 -6 159 -15 230 -21 72 -6 182 -17 245 -25 63 -9 165 -22
225 -30 61 -8 135 -17 165 -20 153 -16 402 -61 440 -79 14 -7 57 -21 95 -30
120 -31 248 -76 286 -102 20 -13 69 -37 110 -53 88 -34 169 -79 169 -93 0 -11
-109 0 -126 13 -17 14 -54 -19 -54 -48 0 -28 26 -186 40 -243 5 -19 14 -73 21
-120 6 -47 19 -121 30 -165 28 -125 46 -221 63 -340 23 -159 24 -163 41 -240
8 -38 20 -98 25 -133 6 -35 15 -71 19 -80 5 -9 19 -62 31 -117 11 -55 30 -130
40 -166 11 -36 20 -74 20 -85 1 -10 14 -57 31 -104 33 -94 53 -160 70 -233 9
-39 18 -53 50 -74 36 -24 42 -25 67 -12 28 15 260 184 302 221 143 125 447
318 502 318 7 0 49 -32 93 -71 131 -115 328 -243 434 -279 87 -31 279 -32 421
-3 132 26 140 29 341 136 92 48 172 87 179 87 6 0 50 -20 98 -44 48 -25 101
-48 119 -51 18 -4 92 -36 164 -72 73 -36 152 -73 175 -84 24 -10 70 -35 101
-56 91 -59 113 -71 199 -113 45 -22 87 -46 93 -54 17 -20 79 -30 97 -15 16 13
19 60 5 74 -11 13 -33 168 -36 260 -2 39 -7 99 -13 135 -5 36 -9 79 -10 95 -3
258 -1 568 2 574 3 5 6 86 7 182 2 165 21 435 35 489 3 14 10 50 14 81 6 42
15 64 37 85 81 82 187 125 403 165 123 22 254 0 377 -64 28 -15 87 -41 130
-58 83 -33 188 -87 238 -123 17 -12 44 -28 60 -36 63 -31 270 -255 459 -495
22 -27 43 -52 46 -55 4 -3 20 -25 35 -50 16 -25 41 -61 56 -80 15 -19 41 -61
57 -92 17 -32 41 -72 54 -90 12 -18 28 -40 33 -49 6 -9 25 -40 43 -70 18 -30
50 -82 72 -117 21 -34 56 -93 76 -130 20 -37 50 -89 66 -117 36 -63 78 -152
78 -166 0 -6 9 -23 20 -38 10 -15 34 -57 53 -92 19 -35 52 -98 74 -139 22 -42
44 -87 48 -100 10 -34 94 -219 170 -375 34 -71 71 -152 80 -180 10 -27 31 -77
46 -110 14 -33 30 -71 34 -85 15 -52 100 -269 135 -345 10 -22 24 -66 31 -98
11 -53 11 -58 -7 -72 -13 -10 -45 -15 -99 -15 -44 0 -107 -2 -140 -4 -33 -2
-125 -7 -205 -11 -80 -4 -156 -11 -169 -16 -26 -10 -182 -29 -281 -34 -63 -4
-143 -15 -244 -34 -78 -14 -81 -20 -68 -158 27 -306 43 -450 53 -478 6 -16 13
-75 16 -130 3 -55 9 -107 13 -115 4 -8 11 -42 14 -75 4 -33 15 -100 25 -150
51 -246 55 -276 38 -293 -13 -13 -23 -14 -54 -5 -22 6 -144 11 -293 11 -140 0
-322 3 -405 6 -82 3 -242 8 -355 11 -113 3 -284 8 -380 10 -403 11 -552 15
-1090 30 -311 8 -686 19 -835 25 -148 5 -382 12 -520 15 -137 3 -304 8 -370
10 -66 3 -244 7 -395 10 -151 3 -345 7 -430 10 -85 2 -272 7 -415 10 -143 3
-406 10 -585 16 -179 5 -625 11 -991 13 -486 3 -673 7 -689 16 -12 6 -32 9
-44 6 -44 -11 -51 6 -37 81 8 37 18 76 23 86 5 11 21 63 34 118 13 54 31 115
39 136 9 20 26 77 39 127 31 117 57 207 66 226 4 8 16 42 26 75 9 33 23 71 30
85 7 14 18 52 24 85 15 71 30 126 40 140 3 6 13 30 20 55 8 25 17 47 20 50 11
8 30 71 30 99 1 14 9 51 20 81 11 30 19 66 20 80 0 14 9 31 19 37 14 9 21 29
26 70 4 32 13 78 21 102 8 25 14 57 14 72 0 15 5 31 10 34 6 3 10 15 10 25 0
10 6 23 13 27 8 4 20 44 27 88 7 44 27 127 45 185 18 58 36 118 40 135 4 16
11 32 16 35 4 3 15 36 23 73 7 38 21 76 31 87 9 10 14 23 11 28 -7 11 1 39 90
319 36 111 71 206 78 212 8 7 17 27 20 46 6 31 16 57 61 160 42 98 53 227 25
295 -40 100 -92 134 -375 250 -44 18 -98 40 -120 49 -22 9 -44 16 -50 17 -5 0
-17 4 -25 7 -39 16 -141 47 -154 47 -8 0 -16 4 -18 9 -3 9 -252 104 -363 138
-27 9 -69 24 -93 35 -23 10 -73 28 -110 40 -37 12 -69 25 -72 28 -3 4 -27 12
-54 19 -28 7 -68 21 -90 31 -89 40 -163 68 -196 75 -19 4 -48 14 -65 23 -30
15 -169 67 -275 103 -30 11 -71 27 -90 38 -19 10 -71 31 -115 45 -79 27 -136
49 -165 65 -13 7 -15 38 -14 192 2 191 11 434 20 504 3 27 15 52 39 78 l34 37
96 0 c53 0 160 -4 238 -10z m-1936 -508 c26 -26 75 -63 108 -83 95 -57 267
-146 297 -153 15 -3 39 -16 53 -29 l26 -22 -10 -144 c-10 -140 -19 -171 -48
-171 -22 0 -119 67 -185 129 -53 48 -148 162 -148 177 0 3 -16 29 -35 58 -19
29 -35 58 -35 65 0 6 -4 11 -10 11 -5 0 -10 8 -11 18 0 9 -15 53 -33 97 -29
70 -35 95 -21 95 2 0 25 -21 52 -48z m6121 -189 c-10 -2 -28 -2 -40 0 -13 2
-5 4 17 4 22 1 32 -1 23 -4z m-518 -277 c106 -22 155 -35 330 -86 231 -68 314
-94 385 -120 44 -16 109 -34 143 -39 l64 -10 87 59 c115 77 163 91 338 97 165
7 247 -8 348 -61 l60 -31 -41 -3 -41 -3 -94 -194 c-52 -107 -96 -195 -99 -195
-3 0 -52 88 -109 196 -57 107 -107 192 -111 187 -4 -4 -24 -93 -44 -198 -45
-231 -78 -361 -107 -417 -28 -55 -77 -118 -93 -118 -23 0 -96 81 -121 135 -14
31 -25 59 -25 62 0 4 -10 17 -22 30 -38 41 -71 31 -178 -52 -25 -19 -94 -59
-155 -88 -60 -30 -158 -87 -218 -128 -59 -41 -129 -89 -155 -106 -26 -18 -52
-33 -59 -33 -17 0 -49 128 -73 295 -4 33 -16 92 -25 130 -43 181 -73 323 -74
350 0 17 -3 41 -6 55 -13 61 -32 310 -22 310 1 0 54 -11 117 -24z m2865 -201
c0 -44 -3 -159 -5 -255 -3 -96 -2 -211 1 -255 3 -44 3 -151 -1 -238 -8 -199
-7 -198 -115 -162 -43 14 -97 28 -119 32 -22 3 -63 15 -91 26 -27 10 -102 36
-165 57 -64 22 -122 47 -130 58 -31 38 -54 36 -162 -14 -196 -89 -385 -134
-563 -134 -105 0 -136 4 -202 25 -43 14 -88 25 -100 25 -12 0 -24 4 -28 9 -3
5 -22 15 -43 22 -20 7 -47 19 -60 27 l-22 14 41 45 c46 51 91 139 119 238 11
37 21 69 22 71 3 2 115 -129 169 -198 15 -19 20 -12 124 161 59 100 108 180
109 179 1 -2 -2 -106 -6 -232 -5 -126 -7 -230 -6 -231 4 -4 199 22 204 27 2 2
-12 159 -31 348 -19 189 -33 345 -32 347 7 7 120 -103 148 -144 18 -26 46 -51
66 -60 32 -13 37 -12 60 4 14 10 31 21 37 25 24 15 136 62 221 93 50 18 122
44 160 58 39 14 115 39 170 55 55 16 116 37 135 45 19 9 49 15 65 14 l30 -2 0
-80z m-1498 -359 c41 -71 61 -116 57 -128 -3 -10 -9 -18 -14 -18 -6 0 -41 42
-79 93 -69 92 -69 92 -61 137 5 25 9 50 10 55 0 6 6 1 12 -10 6 -11 40 -69 75
-129z m383 -53 c-1 -43 -26 -192 -34 -200 -3 -3 -12 -3 -19 0 -12 5 -12 16 3
74 10 37 21 89 25 116 7 56 25 63 25 10z m5118 -2222 c186 -61 247 -94 334
-183 69 -70 92 -114 124 -237 18 -70 18 -182 0 -246 -24 -85 -78 -229 -96
-255 -10 -14 -21 -36 -25 -49 -4 -13 -24 -42 -44 -65 -20 -23 -45 -53 -54 -68
-9 -15 -36 -50 -60 -77 -23 -26 -62 -77 -87 -111 -48 -68 -108 -130 -126 -130
-6 0 -17 -6 -23 -14 -25 -30 -153 -66 -246 -70 -82 -3 -140 0 -395 20 -47 3
-110 7 -140 9 -30 1 -80 6 -110 10 -53 8 -63 9 -102 13 -21 2 -88 60 -88 76 0
6 -7 24 -16 41 -8 16 -18 49 -21 74 l-6 44 89 -7 c105 -7 135 -11 229 -30 55
-11 107 -13 240 -6 94 4 186 11 205 14 19 4 67 11 105 17 147 22 220 40 250
63 18 14 46 56 68 102 21 44 42 86 47 94 5 8 24 47 43 85 19 39 69 136 111
217 102 198 102 199 -7 305 -91 89 -187 147 -263 159 -25 3 -47 12 -49 18 -2
6 -10 34 -18 61 -15 49 -33 175 -25 175 2 0 73 -22 156 -49z m-29 -317 c58
-20 95 -46 154 -106 53 -56 59 -87 28 -147 -10 -20 -33 -66 -50 -103 -18 -38
-36 -68 -40 -68 -5 0 -19 -24 -31 -52 -77 -179 -152 -309 -188 -323 -9 -3 -60
-10 -112 -15 -52 -5 -112 -14 -134 -20 -63 -19 -401 -17 -561 2 -77 10 -155
22 -173 27 -18 5 -36 9 -40 8 -12 -3 -42 67 -38 90 2 12 -5 59 -16 105 -25
108 -31 170 -20 187 11 15 111 41 163 41 20 0 49 4 65 10 16 5 83 15 149 21
66 6 134 13 150 15 164 22 272 33 390 39 141 7 208 22 233 54 10 12 11 44 6
134 -7 131 -9 127 65 101z"/>
<path d="M18310 18690 c0 -5 5 -10 10 -10 6 0 10 5 10 10 0 6 -4 10 -10 10 -5
0 -10 -4 -10 -10z"/>
<path d="M18150 18629 c0 -5 5 -7 10 -4 6 3 10 8 10 11 0 2 -4 4 -10 4 -5 0
-10 -5 -10 -11z"/>
<path d="M19060 17585 c0 -8 4 -15 10 -15 5 0 7 7 4 15 -4 8 -8 15 -10 15 -2
0 -4 -7 -4 -15z"/>
<path d="M19160 17326 c0 -2 9 -6 20 -9 11 -3 18 -1 14 4 -5 9 -34 13 -34 5z"/>
<path d="M19095 17011 c-6 -11 9 -23 19 -14 9 9 7 23 -3 23 -6 0 -12 -4 -16
-9z"/>
<path d="M17670 15895 c0 -8 5 -15 10 -15 6 0 10 7 10 15 0 8 -4 15 -10 15 -5
0 -10 -7 -10 -15z"/>
<path d="M17730 15830 c6 -11 12 -20 14 -20 2 0 2 9 -1 20 -3 11 -9 20 -15 20
-5 0 -4 -9 2 -20z"/>
<path d="M17836 15727 c3 -10 9 -15 12 -12 3 3 0 11 -7 18 -10 9 -11 8 -5 -6z"/>
<path d="M19950 12832 c0 -15 36 -28 60 -21 l25 7 -27 1 c-15 1 -30 6 -33 11
-7 12 -25 13 -25 2z"/>
<path d="M19991 12764 c0 -11 3 -14 6 -6 3 7 2 16 -1 19 -3 4 -6 -2 -5 -13z"/>
<path d="M20394 12315 c11 -8 24 -15 30 -15 5 0 1 7 -10 15 -10 8 -23 14 -29
14 -5 0 -1 -6 9 -14z"/>
<path d="M20454 12258 c3 -13 6 -26 6 -30 0 -5 13 -8 29 -8 16 0 31 -6 35 -15
10 -26 23 -16 18 15 -4 25 -9 30 -33 30 -17 0 -32 6 -35 15 -10 24 -27 17 -20
-7z"/>
<path d="M20580 12020 c0 -5 5 -10 11 -10 5 0 7 5 4 10 -3 6 -8 10 -11 10 -2
0 -4 -4 -4 -10z"/>
<path d="M20442 11930 c0 -14 2 -19 5 -12 2 6 2 18 0 25 -3 6 -5 1 -5 -13z"/>
<path d="M20426 11861 c-26 -5 -27 -7 -13 -19 14 -12 19 -11 33 2 20 21 17 24
-20 17z"/>
<path d="M20155 11620 c-3 -5 1 -10 9 -10 8 0 18 5 21 10 3 6 -1 10 -9 10 -8
0 -18 -4 -21 -10z"/>
<path d="M18260 10631 c0 -6 5 -13 10 -16 6 -3 10 1 10 9 0 9 -4 16 -10 16 -5
0 -10 -4 -10 -9z"/>
<path d="M18216 18182 c-2 -4 -1 -14 5 -22 7 -12 9 -10 9 8 0 23 -5 28 -14 14z"/>
<path d="M18067 17996 c4 -21 8 -23 23 -13 17 10 17 12 2 24 -25 18 -30 16
-25 -11z"/>
<path d="M8825 17813 c-22 -8 -44 -18 -49 -23 -6 -6 -11 -60 -13 -122 -2 -62
-6 -131 -8 -153 -12 -92 -25 -401 -30 -700 -6 -414 -14 -667 -20 -682 -2 -7
-7 -90 -10 -185 -4 -95 -11 -204 -15 -243 -5 -38 -7 -72 -4 -76 2 -4 -1 -40
-6 -81 -6 -40 -12 -107 -14 -148 -3 -81 -31 -307 -45 -380 -6 -25 -12 -74 -16
-110 -3 -36 -27 -166 -52 -290 -25 -124 -49 -243 -53 -265 -4 -22 -15 -69 -23
-105 -27 -109 -67 -304 -67 -322 0 -10 -8 -44 -19 -75 -40 -123 -71 -231 -86
-303 -9 -41 -25 -118 -36 -170 -58 -271 -115 -470 -144 -500 -13 -14 -28 -36
-33 -50 -9 -24 -10 -24 -18 -5 -4 11 -35 66 -68 123 -34 56 -75 127 -92 158
-17 31 -71 96 -120 146 -139 141 -203 184 -288 194 -47 6 -62 2 -127 -29 -146
-69 -220 -163 -292 -373 -24 -71 -59 -167 -77 -214 -41 -106 -96 -318 -103
-396 -3 -33 -11 -99 -17 -149 -19 -140 4 -354 53 -485 34 -93 96 -205 133
-241 33 -32 39 -34 107 -34 115 0 218 54 405 212 67 57 122 102 122 100 0 -3
-16 -54 -35 -114 -19 -59 -42 -144 -51 -188 -9 -44 -29 -134 -44 -200 -16 -66
-40 -168 -54 -227 -15 -59 -26 -117 -26 -129 0 -12 -4 -38 -9 -58 -11 -39 -24
-126 -41 -266 -19 -154 -21 -450 -5 -571 23 -178 66 -294 117 -320 16 -8 33
-26 38 -40 6 -14 23 -42 40 -62 16 -20 59 -75 96 -122 37 -47 90 -110 119
-140 28 -30 69 -77 90 -105 54 -71 428 -440 478 -473 23 -15 76 -54 119 -88
42 -34 114 -83 160 -109 45 -26 114 -68 152 -94 38 -25 74 -49 80 -53 6 -4 34
-17 61 -30 28 -12 69 -34 92 -50 23 -15 55 -28 71 -28 16 0 34 -6 40 -13 6 -7
33 -23 59 -34 61 -27 358 -121 533 -168 74 -20 149 -41 165 -46 36 -10 109
-22 310 -50 83 -11 157 -23 165 -26 8 -3 40 -7 70 -10 33 -2 65 -11 80 -22 17
-12 36 -17 57 -14 17 3 69 0 115 -6 213 -28 312 -35 573 -37 154 -2 312 -4
350 -5 39 -1 102 1 140 5 39 5 174 9 300 11 129 1 250 7 275 14 53 13 232 31
243 24 4 -2 47 -4 95 -3 75 1 113 3 224 13 9 1 14 5 12 9 -5 8 1 10 56 13 19
1 94 11 165 23 72 12 180 29 240 38 136 20 331 59 445 88 236 60 307 84 460
154 36 16 100 41 143 56 42 14 96 35 120 45 23 10 62 26 86 35 24 9 58 28 76
41 17 14 38 25 44 25 7 0 25 8 39 19 15 10 38 22 51 26 36 11 110 61 267 180
136 103 322 294 358 368 8 18 34 54 56 82 23 27 50 65 61 85 11 19 23 42 29
50 25 40 135 281 160 349 15 42 39 105 53 141 64 168 113 466 102 635 -9 150
-11 174 -24 250 -12 72 -109 372 -142 436 -19 38 -31 74 -98 279 -22 69 -51
156 -65 193 l-25 69 26 -6 c14 -4 37 -15 52 -25 14 -10 46 -31 70 -47 24 -16
63 -42 86 -59 190 -133 231 -155 293 -155 26 0 45 -7 57 -20 16 -18 20 -19 35
-5 9 8 17 29 18 46 0 17 8 36 16 42 17 13 86 124 86 139 0 5 9 28 20 50 11 23
20 50 20 59 0 10 5 21 10 24 34 21 68 165 40 165 -7 0 -9 18 -4 53 18 144 -15
424 -77 647 -12 41 -28 100 -36 130 -18 65 -22 77 -64 195 -83 235 -154 332
-224 305 -15 -6 -29 -18 -32 -28 -2 -9 -23 -28 -46 -41 -98 -56 -167 -114
-208 -174 -23 -34 -48 -66 -56 -70 -7 -4 -13 -13 -13 -18 0 -6 -17 -30 -37
-54 -38 -43 -187 -326 -199 -377 -12 -52 -22 -38 -75 102 -17 47 -40 105 -50
130 -20 51 -74 225 -87 285 -5 22 -24 92 -41 155 -17 63 -42 185 -55 270 -14
85 -37 225 -51 310 -14 85 -30 191 -36 234 -5 44 -12 82 -14 85 -11 18 -34
260 -40 411 -5 136 -24 446 -36 590 -1 8 -7 92 -15 185 -7 94 -16 186 -18 205
-3 19 -8 71 -11 115 -3 44 -11 107 -16 140 -14 86 -25 403 -28 845 -1 212 -4
437 -5 500 -10 450 -19 659 -28 682 -17 46 -24 46 -578 53 -256 3 -636 7 -845
10 -209 3 -720 7 -1135 10 -415 4 -867 8 -1005 10 -137 2 -338 4 -445 4 -107
0 -202 0 -210 0 -8 0 -170 3 -360 5 -190 3 -572 8 -849 11 -277 3 -513 7 -525
9 -11 2 -39 -2 -61 -11z m1765 -78 c206 -3 632 -7 945 -10 314 -3 725 -7 915
-10 190 -3 505 -8 700 -10 752 -10 1083 -15 1290 -22 118 -4 234 -6 257 -5 23
2 43 -1 46 -5 2 -4 8 -82 11 -173 4 -91 11 -223 16 -295 4 -71 9 -321 10 -555
4 -642 10 -810 35 -990 3 -19 8 -78 11 -130 3 -52 10 -115 15 -140 6 -25 12
-88 14 -140 2 -52 11 -183 19 -290 9 -107 19 -280 22 -385 7 -249 16 -348 54
-595 18 -113 38 -248 46 -300 7 -52 27 -171 44 -265 17 -93 35 -193 40 -221 4
-28 17 -82 29 -120 11 -38 31 -114 46 -169 53 -206 88 -322 110 -370 7 -16 26
-61 41 -100 33 -83 67 -133 100 -145 48 -19 44 -24 165 233 145 310 333 544
454 564 41 7 59 -5 85 -58 34 -65 148 -421 169 -526 12 -56 26 -115 32 -130 6
-15 17 -95 25 -178 13 -150 8 -258 -18 -360 -5 -22 -16 -69 -24 -105 -30 -129
-137 -271 -176 -232 -7 7 -18 12 -25 12 -7 0 -45 23 -85 50 -40 28 -140 95
-223 150 -130 87 -155 100 -192 100 -33 0 -46 -5 -62 -26 -31 -40 -34 -59 -13
-111 27 -67 100 -284 124 -368 11 -38 37 -115 58 -170 71 -184 108 -290 120
-345 7 -30 16 -62 21 -71 5 -10 11 -48 15 -85 3 -38 10 -106 14 -151 13 -120
-15 -343 -67 -533 -15 -54 -76 -211 -150 -385 -43 -101 -115 -233 -148 -273
-12 -15 -41 -59 -64 -99 -23 -40 -46 -75 -52 -78 -7 -5 -9 30 -8 107 3 148
-15 235 -103 513 -23 71 -55 154 -72 185 -18 30 -53 100 -80 155 -88 182 -136
247 -317 430 -190 192 -384 380 -423 410 -21 17 -48 41 -60 54 -11 13 -41 37
-66 54 -24 17 -60 45 -80 63 -19 18 -56 43 -82 57 -26 14 -61 35 -77 47 -88
62 -465 189 -697 235 -44 8 -126 25 -184 36 -58 12 -121 24 -140 28 -33 6 -35
9 -41 56 -15 118 -74 265 -137 347 -26 33 -54 70 -62 81 -91 135 -346 412
-517 564 -38 34 -87 87 -109 118 -38 55 -39 60 -39 140 -1 109 -26 139 -81
100 -42 -29 -23 -188 34 -287 19 -32 37 -58 42 -58 4 0 13 -13 20 -29 11 -26
154 -172 227 -231 57 -46 156 -144 201 -200 25 -30 52 -60 61 -66 28 -20 163
-201 177 -236 6 -18 28 -73 47 -123 31 -81 35 -104 41 -225 7 -125 6 -142 -18
-231 -55 -208 -114 -332 -200 -426 -61 -66 -203 -175 -246 -188 -14 -4 -52
-20 -85 -36 -62 -29 -138 -57 -240 -91 -112 -36 -473 -58 -508 -30 -28 22
-135 44 -207 43 -60 -2 -94 4 -169 29 -51 16 -101 30 -111 30 -27 0 -166 75
-229 123 -48 37 -172 169 -243 258 -139 176 -177 234 -190 293 -28 126 -16
343 26 446 53 130 237 363 355 448 23 17 67 59 97 94 30 35 78 89 107 121 58
64 80 97 138 212 22 44 48 93 56 109 20 38 43 116 54 190 5 33 11 62 14 64 10
10 -28 42 -49 42 -12 -1 -31 -9 -44 -20 -19 -15 -23 -28 -22 -67 2 -87 -59
-225 -169 -383 -42 -60 -138 -169 -261 -295 -186 -192 -293 -318 -333 -395
-49 -93 -87 -242 -87 -338 0 -87 -3 -89 -160 -102 -255 -20 -386 -48 -625
-130 -113 -39 -219 -89 -377 -177 -171 -95 -287 -186 -347 -274 -26 -36 -69
-93 -97 -126 -28 -33 -68 -89 -89 -124 -21 -35 -57 -91 -79 -124 -44 -65 -51
-78 -117 -230 -24 -55 -53 -113 -65 -130 -31 -43 -49 -82 -74 -155 -11 -36
-28 -79 -36 -97 -8 -17 -26 -73 -40 -125 -14 -51 -29 -109 -35 -128 -5 -19
-14 -83 -19 -142 -10 -106 -17 -138 -29 -138 -11 0 -95 86 -171 175 -41 49
-96 110 -122 137 -27 27 -48 55 -48 62 0 8 -7 19 -16 27 -21 17 -104 147 -116
181 -5 15 -25 37 -44 49 -19 11 -34 26 -34 33 0 7 -7 28 -16 46 -31 62 -46
229 -39 433 3 104 10 200 16 213 5 14 9 69 9 122 1 58 7 113 15 137 8 22 15
52 15 67 0 15 5 49 11 75 6 27 20 85 30 131 10 45 28 119 39 165 10 45 31 136
46 202 14 66 32 129 39 141 7 11 23 54 35 95 12 41 28 81 36 90 16 18 19 75 4
84 -18 11 -10 39 21 71 24 25 33 44 36 81 8 75 -26 93 -58 31 -22 -43 -196
-225 -264 -276 -33 -25 -77 -63 -99 -84 -45 -44 -176 -113 -235 -123 -67 -11
-89 7 -143 115 -45 92 -62 138 -87 245 -12 53 -30 196 -26 205 2 3 6 32 10 65
21 202 38 290 75 405 22 69 44 134 49 145 21 46 61 157 90 250 51 163 137 273
241 310 67 24 102 19 159 -20 73 -51 237 -217 262 -267 12 -24 32 -56 44 -73
12 -16 36 -59 54 -95 50 -102 94 -169 114 -176 58 -18 131 51 175 168 32 84
88 285 103 368 4 25 20 99 34 165 15 66 29 134 32 150 3 17 20 82 38 145 42
144 86 326 105 435 5 28 20 93 33 145 13 52 34 154 46 225 12 72 31 171 41
220 28 133 99 695 105 830 5 127 16 342 20 385 14 178 26 510 30 880 4 298 17
548 35 695 6 44 13 109 17 145 3 36 11 69 17 73 10 7 887 3 1716 -8z m2516
-6354 c32 -10 102 -26 154 -35 196 -34 298 -62 470 -127 47 -17 105 -39 130
-49 78 -29 258 -143 327 -206 22 -22 61 -51 86 -66 24 -16 100 -85 168 -154
68 -70 208 -211 311 -315 l187 -189 72 -142 c40 -79 85 -165 100 -193 33 -58
121 -326 143 -435 8 -41 20 -101 26 -133 15 -76 4 -193 -21 -229 -16 -22 -26
-26 -52 -23 -36 5 -577 22 -962 30 -137 3 -304 8 -370 10 -66 2 -264 7 -440
10 -176 3 -396 7 -490 10 -211 7 -482 14 -770 20 -121 3 -254 7 -295 10 -41 2
-217 7 -390 10 -173 3 -380 8 -460 10 -703 24 -1523 47 -2175 61 -454 9 -610
16 -623 28 -34 32 35 383 104 532 13 28 24 55 24 60 0 5 27 61 59 124 32 64
72 147 90 187 73 166 274 444 438 604 88 86 126 115 208 159 155 84 314 160
385 185 196 68 238 76 635 126 137 18 128 20 136 -27 7 -39 77 -192 101 -221
6 -8 9 -15 7 -18 -3 -2 -45 0 -94 5 -90 8 -252 0 -355 -19 -66 -11 -215 -57
-397 -121 -74 -27 -267 -127 -343 -179 -89 -61 -205 -170 -282 -266 -80 -101
-186 -253 -226 -326 -71 -129 -112 -211 -112 -225 0 -9 -7 -28 -15 -42 -17
-33 -69 -162 -86 -217 -6 -22 -20 -52 -31 -67 -19 -28 -19 -28 2 -58 25 -35
26 -35 76 -14 33 14 89 17 379 17 320 1 872 -7 1265 -18 182 -5 809 -14 1495
-20 220 -2 506 -7 635 -11 129 -4 296 -7 371 -8 93 -1 141 -5 151 -14 13 -10
18 -9 28 3 10 12 26 14 69 10 44 -4 504 -16 571 -15 134 3 531 -3 645 -10 83
-5 254 -9 381 -9 127 0 260 -5 296 -11 111 -17 160 16 103 70 -14 13 -25 32
-25 42 0 10 -4 18 -10 18 -5 0 -13 15 -19 33 -17 56 -82 241 -96 272 -7 17
-25 68 -40 115 -37 118 -111 268 -149 303 -13 12 -61 64 -107 115 -136 152
-268 264 -451 382 -42 28 -80 55 -83 61 -4 6 -26 19 -49 30 -22 11 -63 33 -91
50 -27 18 -86 50 -130 72 -44 22 -105 55 -135 73 -114 69 -256 109 -479 135
-127 15 -132 18 -119 71 8 36 15 96 17 166 1 18 58 15 127 -7z m-45 -316 c105
-10 128 -23 169 -90 19 -32 51 -77 70 -99 41 -47 131 -195 150 -246 7 -19 30
-72 51 -117 22 -46 39 -87 39 -92 0 -6 13 -50 29 -99 52 -162 95 -422 106
-647 3 -66 7 -133 8 -150 l2 -30 -192 -3 c-224 -3 -218 -6 -208 100 6 67 -3
130 -54 368 -28 131 -48 209 -71 280 -25 73 -83 229 -99 265 -10 22 -26 61
-35 87 -10 26 -45 84 -79 129 -34 45 -75 100 -90 122 l-28 40 32 78 c43 107
61 130 97 119 16 -4 62 -11 103 -15z m336 -72 c86 -33 85 -33 140 -117 25 -39
63 -90 83 -114 63 -70 117 -186 140 -298 29 -144 39 -194 44 -239 3 -22 15
-101 26 -175 28 -179 38 -279 42 -430 l3 -125 -42 -3 c-42 -3 -43 -2 -43 28 0
17 -7 44 -15 60 -10 19 -17 72 -21 152 -3 68 -9 146 -14 173 -5 28 -12 79 -15
114 -7 72 -71 322 -108 421 -13 36 -42 103 -64 150 -22 47 -44 96 -48 110 -10
33 -88 156 -147 233 -47 61 -58 87 -38 87 5 0 40 -12 77 -27z m-3282 -154
c-15 -35 -32 -82 -37 -104 -6 -22 -23 -74 -38 -115 -52 -140 -99 -320 -120
-455 -6 -39 -15 -92 -21 -120 -18 -85 -22 -293 -9 -398 7 -54 10 -100 8 -103
-7 -6 -89 -7 -326 -4 -184 3 -194 4 -207 24 -36 55 -50 293 -22 376 15 44 25
95 33 155 4 34 19 107 36 175 29 119 127 360 161 398 19 20 20 26 9 54 -6 18
-11 32 -9 32 1 1 16 9 33 18 111 62 498 163 527 138 5 -4 -3 -36 -18 -71z
m225 51 c0 -11 -11 -44 -25 -73 -33 -74 -150 -428 -171 -519 -18 -79 -32 -198
-37 -318 -9 -195 -10 -330 -3 -382 l8 -58 -56 0 c-66 0 -66 -1 -85 130 -17
115 1 437 29 505 5 11 11 42 14 69 3 27 10 54 15 60 5 6 27 77 50 157 22 80
61 193 86 251 25 59 45 112 45 118 0 13 30 62 45 72 5 4 27 8 48 8 30 0 37 -4
37 -20z m197 -47 c25 -27 61 -68 81 -93 20 -25 44 -49 52 -54 8 -5 40 -33 70
-61 30 -28 89 -72 130 -98 72 -44 214 -107 242 -107 7 0 46 -16 86 -36 120
-59 233 -84 393 -84 74 0 160 4 190 9 30 5 78 11 108 14 l54 4 -7 -111 c-22
-339 -45 -627 -52 -663 -11 -56 0 -55 -453 -48 -229 3 -501 8 -606 11 -104 2
-271 5 -370 5 -236 -1 -239 0 -256 52 -15 48 -22 438 -9 509 5 24 16 86 25
138 14 85 76 289 95 315 4 6 15 39 24 75 10 36 40 111 67 168 59 121 70 126
136 55z m3202 -23 c33 -16 76 -41 98 -56 21 -14 47 -30 58 -34 18 -7 210 -141
272 -190 57 -44 181 -158 218 -199 22 -25 65 -72 95 -105 117 -130 146 -190
256 -531 19 -60 39 -119 44 -130 5 -11 12 -34 15 -52 6 -28 3 -33 -17 -37 -30
-6 -392 -20 -483 -18 -139 2 -315 14 -320 21 -5 9 -24 197 -26 266 -2 58 -25
254 -39 335 -5 30 -19 116 -30 190 -44 280 -88 398 -200 543 -28 35 -14 34 59
-3z m-907 -85 c24 -30 50 -67 58 -82 9 -16 28 -46 43 -69 15 -22 36 -65 47
-95 10 -30 28 -72 39 -94 12 -21 21 -50 21 -63 0 -12 6 -35 14 -50 16 -32 56
-171 85 -297 51 -225 68 -360 54 -435 -8 -41 -11 -45 -38 -45 -33 0 -34 1 -56
158 -7 48 -16 90 -21 93 -4 3 -8 18 -8 34 0 16 -4 39 -9 52 -5 13 -14 48 -21
78 -35 159 -117 363 -170 425 -10 11 -26 36 -35 55 -10 19 -26 46 -35 60 -88
130 -130 203 -123 213 14 24 97 117 104 117 4 0 27 -25 51 -55z m-3342 -20 c0
-3 -8 -22 -19 -43 -35 -69 -99 -246 -130 -357 -74 -272 -96 -458 -81 -685 5
-75 5 -75 -21 -78 -32 -4 -50 21 -73 101 -32 111 -27 214 23 422 5 22 19 99
30 170 21 139 44 205 91 265 31 40 38 78 18 98 -6 6 -10 13 -7 15 2 1 22 16
43 32 64 48 126 77 126 60z m3153 -167 c35 -44 107 -154 107 -164 0 -3 10 -20
23 -37 78 -110 167 -326 187 -452 4 -27 17 -84 28 -125 24 -91 46 -245 37
-260 -7 -12 -649 -13 -780 -1 l-70 6 -3 40 c-4 48 12 222 38 400 10 72 21 164
24 205 11 158 28 265 44 281 10 8 40 21 67 28 46 13 153 65 165 80 13 18 57
41 77 41 14 0 34 -16 56 -42z m-3433 -7 c0 -5 -11 -33 -23 -62 -32 -72 -54
-166 -67 -278 -6 -51 -19 -126 -30 -167 -30 -113 -36 -246 -15 -357 10 -50 22
-97 27 -103 5 -8 3 -14 -8 -18 -24 -9 -487 -7 -502 3 -10 6 -6 25 19 87 17 43
37 97 44 119 28 89 185 381 242 451 134 164 191 230 241 279 55 53 72 64 72
46z m2952 -163 c5 -13 -4 -133 -21 -293 -5 -49 -19 -178 -30 -285 -12 -107
-24 -215 -29 -240 -7 -45 -7 -45 -51 -48 -24 -2 -48 1 -53 6 -6 6 -5 53 1 123
6 63 13 157 16 209 3 52 10 140 15 195 5 55 12 145 15 200 3 54 9 103 13 107
8 8 87 35 108 37 7 1 14 -5 16 -11z m-3632 -1183 c146 -3 414 -9 595 -15 182
-6 485 -13 675 -15 423 -5 1153 -22 1275 -30 50 -3 180 -7 290 -10 450 -11
618 -16 770 -25 88 -5 254 -10 368 -9 114 0 211 -2 215 -5 4 -2 144 -7 312
-10 361 -8 540 -13 750 -20 85 -3 261 -9 390 -12 288 -7 417 -12 495 -19 33
-3 149 -7 259 -10 109 -3 216 -10 238 -16 22 -6 59 -8 82 -4 l41 6 -52 -50
c-101 -97 -320 -259 -413 -305 -36 -18 -81 -44 -101 -57 -20 -14 -72 -38 -115
-54 -44 -15 -104 -40 -134 -55 -30 -15 -70 -31 -89 -35 -19 -4 -66 -23 -105
-41 -39 -19 -76 -34 -84 -34 -7 0 -38 -12 -69 -26 -31 -14 -75 -29 -97 -34
-23 -5 -77 -18 -121 -30 -44 -11 -114 -27 -155 -35 -41 -8 -96 -21 -122 -29
-26 -8 -76 -18 -110 -21 -35 -3 -108 -14 -163 -25 -150 -29 -302 -48 -475 -61
-85 -6 -158 -12 -161 -14 -3 -2 -63 -9 -134 -15 -71 -6 -162 -17 -204 -25 -87
-16 -211 -19 -499 -11 -162 5 -208 3 -230 -8 -22 -11 -86 -12 -377 -5 -192 5
-368 13 -390 19 -22 6 -96 17 -165 25 -69 8 -188 23 -265 35 -77 11 -174 25
-215 30 -41 5 -93 14 -115 19 -22 6 -55 11 -74 11 -34 0 -107 21 -171 49 -19
8 -61 17 -92 19 -32 2 -58 8 -58 12 0 9 -70 30 -100 30 -12 0 -34 6 -48 14
-15 8 -77 30 -137 49 -96 30 -184 66 -325 131 -57 27 -91 47 -170 99 -98 65
-219 137 -231 137 -5 0 -9 4 -9 8 0 5 -17 16 -39 25 -21 10 -55 33 -76 52 -20
20 -46 41 -58 48 -39 22 -119 81 -155 115 -19 17 -38 32 -42 32 -4 0 -11 11
-14 25 -3 13 -19 31 -34 39 -15 8 -58 47 -97 86 l-70 72 70 -6 c39 -4 189 -9
335 -11z"/>
<path d="M11695 16981 c-11 -5 -23 -7 -27 -4 -12 7 -501 -27 -690 -47 -274
-31 -526 -92 -738 -182 -52 -22 -127 -90 -145 -132 -16 -38 2 -82 49 -114 38
-26 59 -28 76 -7 17 21 86 52 141 64 24 6 91 21 149 35 278 66 333 78 570 122
216 41 973 35 1340 -9 69 -9 175 -21 235 -27 61 -6 135 -15 165 -20 30 -5 93
-12 140 -14 47 -3 100 -8 118 -12 26 -5 38 -2 58 17 31 29 31 69 -1 107 -31
37 -183 88 -319 108 -50 7 -125 18 -166 24 -41 6 -111 15 -155 20 -44 5 -134
18 -200 29 -66 11 -149 21 -185 21 -36 0 -94 5 -130 10 -96 14 -262 21 -285
11z m805 -171 c12 -8 10 -9 -10 -9 -14 1 -38 5 -55 9 -29 7 -29 8 10 9 22 0
47 -4 55 -9z m-1473 -6 c-3 -3 -12 -4 -19 -1 -8 3 -5 6 6 6 11 1 17 -2 13 -5z
m1583 -14 c-14 -8 -50 -2 -50 9 0 4 14 5 31 3 19 -3 26 -7 19 -12z m60 0 c13
-9 13 -10 0 -10 -8 0 -22 5 -30 10 -13 9 -13 10 0 10 8 0 22 -5 30 -10z
m-1793 -16 c-3 -3 -12 -4 -19 -1 -8 3 -5 6 6 6 11 1 17 -2 13 -5z m2008 -22
c-3 -3 -11 0 -18 7 -9 10 -8 11 6 5 10 -3 15 -9 12 -12z m-2290 -42 c-27 -12
-43 -12 -25 0 8 5 22 9 30 9 10 0 8 -3 -5 -9z m-360 -90 c-3 -5 -11 -10 -16
-10 -6 0 -7 5 -4 10 3 6 11 10 16 10 6 0 7 -4 4 -10z"/>
<path d="M11445 16165 c-5 -2 -104 -6 -220 -9 -267 -7 -438 -21 -494 -40 -24
-9 -58 -16 -75 -16 -36 0 -230 -27 -260 -37 -20 -6 -40 -7 -251 -17 -141 -7
-202 -22 -500 -118 -323 -104 -489 -188 -642 -325 -102 -91 -130 -139 -139
-236 l-7 -77 42 -40 c61 -58 131 -54 131 7 0 27 47 83 115 134 27 21 77 58
110 84 78 60 216 134 335 180 52 20 109 43 125 50 17 8 62 23 100 34 39 11
140 41 225 66 85 26 169 51 185 55 17 5 66 14 110 20 44 6 94 15 110 20 61 19
303 48 403 49 57 0 108 4 113 7 17 10 572 5 744 -7 88 -6 198 -13 245 -15 46
-2 130 -9 185 -14 55 -6 143 -15 196 -20 53 -5 107 -12 120 -15 13 -3 78 -12
144 -20 105 -12 189 -27 375 -65 25 -5 115 -21 200 -35 85 -14 184 -32 220
-40 198 -43 210 -47 355 -96 17 -6 66 -21 110 -35 149 -45 324 -125 385 -177
114 -96 134 -122 165 -210 29 -85 29 -87 12 -117 -18 -29 -18 -30 6 -54 14
-14 44 -30 67 -36 42 -11 43 -11 80 25 56 55 76 130 61 231 -16 110 -50 172
-168 313 -75 89 -199 181 -313 233 -114 52 -135 59 -209 78 -42 10 -116 30
-166 45 -49 14 -115 30 -145 35 -79 14 -236 39 -295 46 -27 3 -66 9 -85 14
-19 5 -78 13 -130 20 -52 6 -124 15 -160 21 -36 5 -108 14 -160 20 -52 6 -129
14 -170 19 -41 5 -167 18 -280 29 -113 11 -245 25 -295 30 -84 10 -588 14
-610 6z m-207 -102 c-10 -2 -26 -2 -35 0 -10 3 -2 5 17 5 19 0 27 -2 18 -5z
m95 0 c-7 -2 -21 -2 -30 0 -10 3 -4 5 12 5 17 0 24 -2 18 -5z m244 0 c-11 -10
-117 -12 -123 -2 -3 5 25 9 62 9 37 0 64 -3 61 -7z m132 -9 c2 -2 -19 -4 -48
-4 -32 0 -50 4 -46 10 5 9 83 4 94 -6z m54 -1 c-7 -2 -21 -2 -30 0 -10 3 -4 5
12 5 17 0 24 -2 18 -5z m-2491 -395 c-7 -7 -12 -8 -12 -2 0 14 12 26 19 19 2
-3 -1 -11 -7 -17z m-237 -168 c-10 -11 -21 -18 -23 -15 -3 3 3 12 14 20 27 20
30 18 9 -5z m-65 -130 c0 -5 -4 -10 -10 -10 -5 0 -10 5 -10 10 0 6 5 10 10 10
6 0 10 -4 10 -10z"/>
<path d="M10605 15838 c-94 -10 -318 -53 -390 -73 -279 -78 -320 -93 -450
-156 -166 -82 -199 -105 -285 -198 -97 -105 -126 -142 -145 -186 -10 -22 -30
-69 -45 -105 -47 -108 -64 -207 -65 -375 0 -166 5 -187 73 -300 45 -76 300
-335 361 -369 86 -46 155 -60 296 -60 99 0 150 5 215 21 47 12 104 25 127 28
59 9 334 103 354 121 8 8 19 14 22 14 4 0 25 11 47 25 22 14 53 27 68 29 27 3
86 34 131 68 13 10 32 18 41 18 10 0 24 7 31 16 13 16 49 34 79 40 8 2 21 12
29 23 7 12 19 21 27 21 16 0 105 91 98 101 -2 4 15 21 40 38 46 32 161 159
179 198 5 12 17 25 26 28 58 18 108 239 103 458 -2 98 -5 116 -39 204 -35 88
-45 102 -124 183 -77 77 -96 91 -175 124 -49 21 -123 45 -164 53 -89 19 -350
25 -465 11z m385 -88 c148 -21 287 -87 371 -177 125 -132 160 -434 77 -662
-17 -48 -39 -74 -160 -193 -79 -78 -176 -161 -226 -195 -47 -32 -93 -65 -102
-73 -8 -8 -50 -35 -93 -59 -42 -25 -77 -48 -77 -53 0 -4 -7 -8 -16 -8 -9 0
-46 -16 -83 -36 -107 -58 -361 -137 -589 -183 -67 -14 -192 -14 -263 -1 -54
10 -209 84 -209 100 0 4 -21 28 -46 52 -26 23 -59 56 -73 72 -14 17 -45 50
-69 74 -55 59 -111 176 -123 259 -5 36 -7 69 -3 74 3 5 10 46 15 92 21 182 37
241 89 343 51 98 71 126 140 193 98 96 192 149 410 233 106 41 357 103 525
130 222 35 347 40 505 18z"/>
<path d="M10408 15555 c-99 -15 -151 -31 -298 -92 -119 -50 -171 -81 -284
-169 -44 -34 -93 -65 -109 -68 -17 -3 -46 -23 -66 -44 -48 -51 -104 -194 -109
-277 -8 -129 52 -266 154 -346 31 -24 74 -59 96 -76 79 -65 259 -100 394 -78
100 16 302 71 354 95 8 4 29 14 45 22 17 9 48 19 70 23 22 4 45 10 50 14 6 4
30 16 55 25 137 54 335 228 414 366 47 83 49 87 53 186 l6 102 -39 71 c-50 94
-95 139 -176 178 -86 42 -123 50 -298 68 -167 17 -194 17 -312 0z m393 -89
c110 -18 225 -70 265 -119 100 -126 100 -239 2 -398 -38 -62 -37 -61 -148
-158 -86 -74 -162 -117 -295 -167 -38 -14 -97 -36 -130 -48 -65 -25 -236 -69
-325 -83 -30 -5 -92 -6 -137 -3 -103 8 -179 44 -279 135 -83 75 -110 128 -120
231 -11 116 1 139 130 268 114 113 179 161 291 214 208 100 257 119 345 131
90 14 309 12 401 -3z"/>
<path d="M12955 15629 c-55 -3 -127 -14 -160 -24 -68 -19 -225 -99 -260 -131
-13 -12 -36 -25 -52 -28 -32 -8 -118 -63 -171 -110 -50 -44 -109 -139 -132
-212 -34 -112 -11 -335 56 -554 30 -94 125 -250 192 -313 85 -81 115 -107 123
-107 5 0 30 -20 56 -45 26 -24 65 -54 86 -67 21 -13 60 -40 86 -60 68 -52 349
-191 472 -234 214 -74 360 -86 559 -47 147 29 235 74 360 186 133 119 165 172
237 387 35 104 35 106 29 230 -7 136 -29 228 -71 292 -14 21 -25 41 -25 46 0
5 -9 17 -21 28 -12 10 -30 37 -41 59 -43 84 -430 433 -517 466 -13 6 -29 16
-35 23 -20 26 -260 145 -341 169 -157 48 -255 58 -430 46z m270 -94 c165 -32
271 -77 479 -204 83 -51 146 -101 273 -221 91 -85 180 -177 199 -205 19 -27
54 -78 78 -113 66 -94 88 -176 89 -324 1 -111 -1 -131 -26 -197 -40 -109 -76
-180 -119 -235 -47 -60 -200 -185 -253 -208 -224 -93 -499 -87 -730 16 -99 45
-287 139 -327 165 -27 17 -67 43 -90 59 -207 133 -356 278 -436 422 -24 42
-62 170 -85 285 -28 132 -28 276 -2 354 17 52 87 151 106 151 6 0 31 17 57 39
60 49 164 112 267 160 69 33 107 44 210 65 48 9 246 4 310 -9z"/>
<path d="M12899 15230 c-86 -26 -203 -153 -228 -248 -7 -22 -12 -82 -12 -133
0 -104 19 -166 82 -259 39 -58 253 -279 297 -308 15 -9 50 -33 77 -53 28 -20
70 -48 95 -62 218 -119 275 -141 390 -150 203 -17 344 52 421 207 36 75 39 86
39 167 0 71 -5 102 -27 161 -27 74 -78 163 -107 187 -9 7 -16 19 -16 26 0 7
-43 52 -97 101 -53 49 -114 105 -135 125 -86 79 -323 194 -476 230 -86 20
-252 25 -303 9z m335 -104 c64 -18 247 -105 312 -148 23 -16 46 -28 51 -28 5
0 30 -21 55 -47 25 -27 69 -71 99 -98 58 -54 164 -196 192 -257 10 -21 22 -68
26 -105 18 -134 -49 -264 -161 -314 -45 -20 -69 -23 -163 -24 -123 0 -167 12
-285 81 -36 20 -85 48 -110 62 -56 32 -174 116 -219 157 -74 66 -230 234 -231
248 0 5 -8 21 -19 35 -73 105 -48 304 51 399 58 56 89 64 223 59 68 -2 146
-11 179 -20z"/>
<path d="M10465 13461 c-69 -21 -156 -67 -233 -123 -53 -40 -159 -164 -188
-221 -9 -18 -27 -46 -39 -62 -32 -43 -68 -178 -66 -250 2 -87 35 -185 87 -256
45 -61 46 -61 179 -119 39 -17 101 -30 146 -30 101 0 240 110 430 340 127 154
175 261 186 410 5 75 3 91 -17 132 -31 66 -89 121 -172 163 -66 33 -77 35
-162 34 -57 0 -114 -7 -151 -18z"/>
<path d="M12828 13314 c-80 -19 -133 -48 -194 -106 -56 -53 -69 -80 -79 -168
-4 -30 -13 -82 -21 -116 -11 -45 -12 -72 -5 -105 5 -24 11 -71 12 -103 5 -113
60 -214 198 -359 53 -56 77 -70 164 -97 153 -49 252 -37 377 46 86 58 108 79
149 148 21 35 25 56 28 151 4 129 -8 223 -37 283 -11 23 -25 52 -31 65 -5 12
-21 40 -34 62 -14 22 -29 49 -34 60 -11 23 -77 105 -124 153 -84 88 -227 121
-369 86z"/>
<path d="M16338 13295 c-7 -8 15 -75 25 -75 5 0 5 10 1 23 -4 12 -7 30 -6 40
1 16 -9 23 -20 12z"/>
<path d="M4418 9453 c7 -3 16 -2 19 1 4 3 -2 6 -13 5 -11 0 -14 -3 -6 -6z"/>
<path d="M5567 21463 c-12 -11 -8 -23 8 -23 8 0 15 7 15 15 0 16 -12 20 -23 8z"/>
<path d="M19670 16623 c0 -36 15 -52 23 -23 3 10 -1 27 -9 37 -12 16 -13 15
-14 -14z"/>
<path d="M19694 16554 c3 -9 6 -18 6 -20 0 -3 4 -3 10 1 11 7 2 35 -12 35 -6
0 -7 -7 -4 -16z"/>
<path d="M20785 10910 c28 -12 37 -12 30 0 -3 6 -16 10 -28 9 -21 0 -21 -1 -2
-9z"/>
<path d="M20830 10870 c0 -5 5 -10 11 -10 5 0 7 5 4 10 -3 6 -8 10 -11 10 -2
0 -4 -4 -4 -10z"/>
<path d="M20870 10846 c0 -2 8 -10 18 -17 15 -13 16 -12 3 4 -13 16 -21 21
-21 13z"/>
<path d="M21030 10692 c0 -6 33 -31 43 -32 19 -1 4 28 -18 32 -14 3 -25 3 -25
0z"/>
<path d="M20590 10161 c0 -16 71 -52 92 -45 10 3 30 -1 43 -10 21 -14 25 -14
25 -2 0 15 -21 26 -49 26 -10 0 -26 9 -36 20 -18 20 -75 28 -75 11z"/>
<path d="M20962 10110 c2 -16 8 -24 18 -21 8 2 29 4 45 6 22 2 30 8 30 21 0
15 -8 18 -48 19 -45 0 -48 -1 -45 -25z"/>
<path d="M20991 10019 c23 -23 33 -21 23 5 -3 9 -15 16 -25 16 -18 0 -18 -1 2
-21z"/>
<path d="M20830 9845 c0 -8 5 -15 10 -15 6 0 10 7 10 15 0 8 -4 15 -10 15 -5
0 -10 -7 -10 -15z"/>
<path d="M20608 9844 c-13 -12 -9 -30 11 -53 14 -16 24 -19 41 -13 22 8 22 9
-8 21 -17 7 -32 22 -34 33 -2 11 -6 16 -10 12z"/>
<path d="M19046 2161 c-4 -7 -5 -15 -2 -18 9 -9 19 4 14 18 -4 11 -6 11 -12 0z"/>
<path d="M16758 673 c6 -2 12 -11 12 -19 0 -8 5 -14 10 -14 16 0 11 27 -6 34
-9 3 -19 6 -22 5 -4 0 -1 -3 6 -6z"/>
</g>
</svg>
