<?xml version="1.0" standalone="no"?>
<!DOCTYPE svg PUBLIC "-//W3C//DTD SVG 20010904//EN"
 "http://www.w3.org/TR/2001/REC-SVG-20010904/DTD/svg10.dtd">
<svg version="1.0" xmlns="http://www.w3.org/2000/svg"
 width="661.000000pt" height="661.000000pt" viewBox="0 0 661.000000 661.000000"
 preserveAspectRatio="xMidYMid meet">
<metadata>
Created by potrace 1.11, written by Peter Selinger 2001-2013
</metadata>
<g transform="translate(0.000000,661.000000) scale(0.100000,-0.100000)"
fill="#000000" stroke="none">
<path d="M4529 6423 c0 -10 -1 -102 -1 -204 l0 -187 -561 -1 c-308 0 -562 -3
-564 -5 -2 -2 -4 -37 -5 -78 l-1 -74 -81 1 c-129 2 -118 23 -120 -231 l-1
-219 -100 -2 c-54 -1 -109 -4 -120 -7 -28 -7 -68 -42 -72 -64 -10 -49 -9 -63
7 -88 34 -51 59 -59 174 -59 l105 1 -6 -98 c-4 -61 -2 -98 4 -98 5 0 10 -33
10 -75 l1 -75 -31 -1 c-97 -2 -171 4 -181 15 -10 11 -17 23 -48 79 -7 12 -16
24 -19 27 -4 3 -22 34 -40 70 -18 36 -39 71 -46 78 -7 8 -10 18 -7 24 4 6 2 8
-3 5 -6 -4 -14 0 -17 8 -5 13 -9 13 -28 3 -13 -7 -25 -15 -28 -18 -5 -5 -32
-20 -130 -71 -25 -13 -47 -27 -50 -30 -3 -3 -20 -12 -37 -20 -18 -8 -33 -17
-33 -21 0 -13 -37 -9 -47 5 -6 6 -22 32 -35 57 -39 70 -158 274 -164 279 -2 2
-21 -5 -42 -16 -20 -12 -54 -30 -74 -42 -21 -11 -55 -32 -77 -47 l-40 -26 26
-46 c15 -26 35 -60 45 -77 10 -16 18 -33 18 -37 0 -13 -18 -9 -34 7 -14 14
-19 14 -48 -1 -18 -9 -36 -21 -39 -26 -3 -5 -9 -9 -13 -9 -10 2 -136 -72 -136
-80 0 -3 10 -21 22 -40 13 -19 39 -64 58 -101 19 -38 38 -68 42 -68 14 0 8
-37 -7 -50 -8 -7 -15 -9 -15 -4 0 5 -4 4 -8 -1 -8 -11 -109 -72 -207 -125 -33
-18 -67 -37 -75 -44 -8 -7 -34 -21 -57 -32 -24 -10 -43 -22 -43 -25 0 -3 -16
-11 -35 -19 -19 -8 -35 -17 -35 -20 0 -8 -52 -34 -62 -32 -5 1 -8 -2 -8 -6 0
-8 -35 -28 -53 -30 -4 -1 -19 -10 -34 -22 -14 -11 -31 -20 -37 -20 -7 0 -25
26 -41 58 -17 31 -33 59 -36 62 -19 17 -62 104 -52 107 7 3 9 11 6 19 -4 11
-9 12 -19 3 -8 -6 -14 -8 -14 -3 0 5 -4 4 -8 -2 -14 -22 -186 -114 -203 -109
-24 8 -19 -33 9 -73 12 -16 22 -33 22 -36 0 -5 23 -46 83 -146 11 -19 17 -32
13 -28 -5 4 -18 -2 -29 -13 -12 -11 -27 -17 -35 -14 -7 2 -11 1 -8 -4 3 -5 -5
-12 -19 -15 -14 -4 -25 -11 -25 -16 0 -6 -8 -10 -18 -10 -10 0 -28 -7 -41 -16
-32 -23 -63 -7 -97 53 -16 26 -32 50 -36 51 -5 2 -6 8 -2 13 3 5 0 9 -5 9 -6
0 -11 5 -11 11 0 6 -9 24 -21 40 -11 16 -17 29 -12 29 4 0 1 6 -8 13 -9 7 -19
22 -23 34 -7 22 -36 40 -36 23 0 -6 -6 -10 -14 -10 -8 0 -21 -6 -28 -13 -18
-18 -61 -42 -71 -39 -4 1 -7 -3 -7 -8 0 -6 -7 -10 -15 -10 -8 0 -15 -5 -15
-11 0 -5 -4 -8 -8 -5 -4 2 -19 -4 -32 -15 -14 -10 -19 -19 -12 -19 7 0 11 -4
8 -9 -3 -4 3 -19 14 -31 11 -13 20 -27 20 -32 0 -6 10 -24 22 -41 13 -18 23
-35 23 -39 0 -4 7 -16 15 -26 8 -10 16 -25 18 -32 2 -7 11 -25 21 -39 28 -40
33 -66 16 -81 -8 -7 -15 -9 -15 -4 0 5 -4 5 -8 -1 -4 -5 -23 -19 -42 -29 -115
-62 -111 -59 -97 -75 7 -9 24 -37 37 -62 23 -46 23 -46 3 -65 -11 -10 -26 -20
-34 -22 -8 -2 -21 -9 -29 -15 -8 -7 -32 -21 -52 -31 -33 -17 -36 -20 -26 -42
6 -13 15 -24 20 -24 4 0 7 -3 6 -7 -2 -10 14 -47 22 -53 4 -3 20 -29 36 -59
16 -30 34 -61 39 -70 23 -36 85 -148 85 -153 0 -3 -45 -32 -100 -64 -101 -59
-120 -81 -120 -137 0 -26 36 -83 58 -92 42 -18 83 -23 95 -11 24 22 178 107
186 102 5 -3 14 -20 22 -38 7 -18 16 -35 19 -38 17 -13 118 -203 114 -213 -2
-7 -27 -23 -55 -37 -28 -13 -55 -30 -61 -37 -6 -7 -16 -13 -22 -13 -15 0 -49
-36 -66 -69 -15 -29 -6 -81 20 -111 11 -13 41 -29 68 -36 43 -11 48 -11 61 7
7 10 18 19 25 19 6 0 37 16 68 36 77 47 102 52 97 18 0 -4 3 -10 8 -13 10 -7
59 -88 83 -136 8 -16 25 -45 38 -64 12 -19 22 -39 22 -45 0 -6 -40 -35 -90
-64 -101 -59 -125 -87 -124 -146 1 -34 8 -46 38 -72 39 -33 81 -38 126 -14 13
7 20 7 20 0 0 -5 4 -10 10 -10 5 0 7 6 4 14 -4 9 13 23 51 41 30 15 58 31 61
36 12 20 30 6 54 -38 13 -27 29 -51 34 -54 4 -4 10 -19 11 -34 2 -15 15 -39
28 -54 24 -26 57 -82 57 -98 0 -5 -14 -17 -30 -26 -17 -10 -30 -15 -30 -12 0
4 -6 0 -14 -7 -7 -7 -34 -25 -59 -40 -25 -15 -53 -39 -63 -53 -22 -34 -20 -89
6 -125 26 -37 94 -58 124 -40 25 16 99 57 149 83 41 21 67 12 67 -24 0 -11 4
-19 8 -19 8 0 38 -47 42 -65 5 -20 14 -40 20 -45 11 -7 60 -103 60 -115 0 -6
-17 -17 -37 -24 -43 -16 -78 -40 -134 -92 -32 -30 -39 -44 -39 -74 0 -43 24
-88 56 -106 48 -25 91 -12 213 65 49 31 71 33 78 6 3 -11 9 -20 13 -20 4 0 13
-13 20 -30 7 -16 16 -30 21 -30 5 0 8 -3 7 -7 -2 -5 13 -35 32 -68 19 -33 34
-63 35 -67 0 -3 3 -10 8 -14 17 -17 5 -41 -29 -57 -19 -10 -39 -15 -44 -12 -4
3 -15 -6 -23 -19 -9 -12 -28 -28 -44 -35 -65 -27 -83 -118 -36 -171 49 -54 86
-52 204 14 56 31 102 56 104 54 16 -21 73 -118 69 -118 -3 0 4 -13 15 -29 12
-16 21 -34 21 -40 0 -6 5 -11 10 -11 6 0 10 -6 10 -14 0 -7 7 -19 15 -26 8 -7
12 -16 9 -21 -3 -5 0 -9 5 -9 6 0 11 -7 11 -15 0 -7 7 -18 16 -23 9 -5 15 -12
14 -16 -1 -3 10 -29 23 -57 20 -43 25 -48 36 -35 7 9 17 14 21 11 4 -3 13 2
20 10 7 8 21 15 31 15 11 0 19 4 19 8 0 8 64 42 79 42 5 0 21 -25 36 -55 16
-30 30 -55 31 -55 6 0 97 50 109 60 6 5 15 7 18 3 4 -3 7 -1 7 5 0 7 6 12 13
12 8 0 22 9 32 20 10 11 25 20 32 20 8 0 26 9 40 20 14 11 32 20 39 20 8 0 14
5 14 10 0 6 5 10 10 10 6 0 28 11 50 25 22 14 40 23 40 20 0 -3 9 4 20 15 12
12 25 18 30 15 6 -4 10 -1 10 4 0 6 7 11 15 11 8 0 15 4 15 10 0 5 11 12 25
16 14 3 25 10 25 16 0 5 5 6 10 3 6 -3 10 -1 10 4 0 6 17 18 37 26 21 9 45 23
55 32 10 9 18 12 18 8 0 -5 10 1 23 13 13 12 27 19 30 15 4 -3 7 -1 7 5 0 7 6
12 14 12 8 0 21 7 30 15 8 9 17 15 18 14 8 -3 58 26 58 34 0 6 3 8 6 4 4 -3
13 0 21 8 8 8 23 15 33 15 10 0 21 7 24 16 4 9 13 14 22 10 8 -3 13 -2 10 3
-3 5 5 12 19 15 14 4 25 11 25 16 0 6 11 10 25 10 16 0 25 6 25 16 0 8 4 13 9
9 5 -3 12 -1 16 5 8 13 87 55 98 52 4 -1 7 2 7 8 0 5 21 20 48 32 26 12 49 24
52 27 5 7 39 26 85 50 16 9 32 19 35 22 3 3 34 21 69 40 63 33 72 39 106 67 8
7 15 10 15 7 0 -3 18 6 40 20 22 14 40 22 40 18 0 -5 4 -3 8 3 9 13 82 57 82
49 0 -3 10 3 22 15 12 11 26 20 31 20 5 0 42 21 82 46 41 26 76 45 78 43 3 -2
16 6 29 19 14 12 28 19 31 15 4 -3 7 -1 7 5 0 6 9 14 21 17 12 4 62 32 112 64
124 76 191 111 213 111 16 0 17 2 4 10 -8 5 -11 10 -7 10 5 0 1 7 -7 16 -9 8
-16 22 -16 30 0 8 -4 14 -10 14 -5 0 -10 5 -10 11 0 6 -9 24 -21 40 -11 16
-18 29 -15 29 5 0 -26 51 -51 85 -5 6 -9 15 -10 21 -1 7 218 10 676 11 373 0
685 2 693 5 12 5 14 282 14 2139 l-1 2134 -65 2 c-36 2 -124 3 -196 3 l-131
-1 -1 166 c0 91 -2 168 -5 172 -11 10 -249 9 -255 -2 -4 -5 -7 -82 -7 -170 l0
-160 -281 -3 -281 -2 1 112 1 113 -83 3 -82 3 0 89 0 90 -130 0 c-117 0 -130
-2 -131 -17z"/>
</g>
</svg>
